<svg xmlns="http://www.w3.org/2000/svg" fill="none" viewBox="0 0 36 37"><g clip-path="url(#clip0)"><path stroke="#F4F6FF" stroke-linecap="round" stroke-linejoin="round" stroke-width="3" d="M22.57 7.96a7.5 7.5 0 015.93 5.93l-5.93-5.93zm0-6A13.5 13.5 0 0134.5 13.87L22.57 1.97zM33 25.84v4.5a3 3 0 01-3.27 3 29.69 29.69 0 01-12.95-4.6 29.25 29.25 0 01-9-9 29.68 29.68 0 01-4.6-13 3 3 0 012.98-3.28h4.5a3 3 0 013 2.58c.2 1.44.55 2.86 1.05 4.22a3 3 0 01-.67 3.16l-1.9 1.9a24 24 0 009 9l1.9-1.9a3 3 0 013.16-.67c1.37.5 2.78.86 4.22 1.05A3 3 0 0133 25.84z"/></g><defs><clipPath id="clip0"><path fill="#fff" d="M0 0h36v36H0z" transform="translate(0 .463)"/></clipPath></defs></svg>