<svg xmlns="http://www.w3.org/2000/svg" fill="none" viewBox="0 0 248 16"><path fill="#000" d="M247.35 8a.5.5 0 000-.7l-3.18-3.2a.5.5 0 00-.7.72l2.82 2.82-2.83 2.83a.5.5 0 00.71.71L247.35 8zM0 8.14h1v-1H0v1zm6.05 0h2.02v-1H6.05v1zm7.06 0h2.01v-1h-2.01v1zm7.05 0h2.02v-1h-2.02v1zm7.06 0h2.02v-1h-2.02v1zm7.06 0h2.01v-1h-2.01v1zm7.05 0h2.02v-1h-2.02v1zm7.06 0h2.02v-1h-2.02v1zm7.06 0h2.02v-1h-2.02v1zm7.06 0h2.01v-1h-2.01v1zm7.05 0h2.02v-1h-2.02v1zm7.06 0h2.02v-1h-2.02v1zm7.06 0h2.01v-1h-2.01v1zm7.05 0h2.02v-1h-2.02v1zm7.06 0h2.02v-1h-2.02v1zm7.06 0h2.02v-1h-2.02v1zm7.06 0h2.01v-1h-2.01v1zm7.05 0h2.02v-1h-2.02v1zm7.06 0h2.02v-1h-2.02v1zm7.06 0h2.01v-1h-2.01v1zm7.05 0h2.02v-1h-2.02v1zm7.06 0h2.02v-1h-2.02v1zm7.06 0h2.01v-1h-2.01v1zm7.06 0h2.01v-1h-2.01v1zm7.05 0h2.02v-1h-2.02v1zm7.06 0h2.02v-1h-2.02v1zm7.06 0h2.01v-1h-2.01v1zm7.06 0h2.01v-1h-2.02v1zm7.05 0h2.02v-1h-2.02v1zm7.06 0h2.01v-1h-2.01v1zm7.06 0h2.01v-1h-2.01v1zm7.05 0h2.02v-1h-2.02v1zm7.06 0h2.02v-1h-2.02v1zm7.06 0h2.01v-1h-2.01v1zm7.06 0h2.01v-1h-2.01v1zm7.05 0H247v-1h-1v1zm1.72.21a1 1 0 000-1.41L241.34.57A1 1 0 10239.93 2l5.66 5.65-5.66 5.66a1 1 0 101.41 1.42l6.37-6.37zM0 8.65h1v-2H0v2zm6.05 0h2.02v-2H6.05v2zm7.06 0h2.01v-2h-2.01v2zm7.05 0h2.02v-2h-2.02v2zm7.06 0h2.02v-2h-2.02v2zm7.06 0h2.01v-2h-2.01v2zm7.05 0h2.02v-2h-2.02v2zm7.06 0h2.02v-2h-2.02v2zm7.06 0h2.02v-2h-2.02v2zm7.06 0h2.01v-2h-2.01v2zm7.05 0h2.02v-2h-2.02v2zm7.06 0h2.02v-2h-2.02v2zm7.06 0h2.01v-2h-2.01v2zm7.05 0h2.02v-2h-2.02v2zm7.06 0h2.02v-2h-2.02v2zm7.06 0h2.02v-2h-2.02v2zm7.06 0h2.01v-2h-2.01v2zm7.05 0h2.02v-2h-2.02v2zm7.06 0h2.02v-2h-2.02v2zm7.06 0h2.01v-2h-2.01v2zm7.05 0h2.02v-2h-2.02v2zm7.06 0h2.02v-2h-2.02v2zm7.06 0h2.01v-2h-2.01v2zm7.06 0h2.01v-2h-2.01v2zm7.05 0h2.02v-2h-2.02v2zm7.06 0h2.02v-2h-2.02v2zm7.06 0h2.01v-2h-2.01v2zm7.06 0h2.01v-2h-2.02v2zm7.05 0h2.02v-2h-2.02v2zm7.06 0h2.01v-2h-2.01v2zm7.06 0h2.01v-2h-2.01v2zm7.05 0h2.02v-2h-2.02v2zm7.06 0h2.02v-2h-2.02v2zm7.06 0h2.01v-2h-2.01v2zm7.06 0h2.01v-2h-2.01v2zm7.05 0H247v-2h-1v2z"/></svg>