<svg xmlns="http://www.w3.org/2000/svg" fill="none" viewBox="0 0 21 20"><g clip-path="url(#clip0)"><path stroke="#C29C51" stroke-linecap="round" stroke-linejoin="round" stroke-width="2" d="M13.4 4.17a4.17 4.17 0 013.3 3.29l-3.3-3.3zm0-3.34a7.5 7.5 0 016.63 6.62L13.41.83zm5.8 13.27v2.5a1.67 1.67 0 01-1.82 1.67 16.5 16.5 0 01-7.19-2.56 16.25 16.25 0 01-5-5 16.5 16.5 0 01-2.56-7.23A1.67 1.67 0 014.3 1.67h2.5A1.67 1.67 0 018.46 3.1c.1.8.3 1.59.58 2.34a1.67 1.67 0 01-.37 1.76L7.6 8.26a13.33 13.33 0 005 5l1.06-1.06a1.67 1.67 0 011.75-.38c.76.29 1.55.48 2.35.59a1.67 1.67 0 011.43 1.69z"/></g><defs><clipPath id="clip0"><path fill="#fff" d="M0 0h20v20H0z" transform="translate(.865)"/></clipPath></defs></svg>