<svg xmlns="http://www.w3.org/2000/svg" fill="none" viewBox="0 0 13 15"><path fill="#000" fill-rule="evenodd" d="M1.94 2.74a.65.65 0 00-.65.65v9.03c0 .35.29.64.65.64h9.03c.35 0 .64-.29.64-.64V3.39a.65.65 0 00-.64-.65H1.94zM0 3.4c0-1.07.87-1.94 1.94-1.94h9.03c1.07 0 1.93.87 1.93 1.94v9.03c0 1.07-.86 1.93-1.93 1.93H1.94A1.94 1.94 0 010 12.42V3.39z" clip-rule="evenodd"/><path fill="#000" fill-rule="evenodd" d="M9.03.16c.36 0 .65.29.65.65v2.58a.65.65 0 01-1.3 0V.8c0-.36.3-.65.65-.65zM3.87.16c.36 0 .65.29.65.65v2.58a.65.65 0 01-1.3 0V.8c0-.36.3-.65.65-.65zM0 5.97c0-.36.29-.65.65-.65h11.6a.65.65 0 010 1.3H.66A.65.65 0 010 5.96z" clip-rule="evenodd"/></svg>