<svg xmlns="http://www.w3.org/2000/svg" fill="none" viewBox="0 0 20 21"><path fill="#000" fill-rule="evenodd" d="M10 3.66A5.44 5.44 0 004.56 9.1c0 2.11 1.37 4.16 2.87 5.74A20.03 20.03 0 0010 17.11a18.89 18.89 0 002.57-2.27c1.5-1.58 2.87-3.63 2.87-5.74A5.44 5.44 0 0010 3.66zm0 14.29l-.38.56-.02-.01a8.7 8.7 0 01-.26-.19 21.38 21.38 0 01-2.9-2.53C4.9 14.13 3.2 11.76 3.2 9.1a6.8 6.8 0 0113.6 0c0 2.66-1.69 5.03-3.25 6.68a21.38 21.38 0 01-3.15 2.72h-.02v.01l-.38-.56zm0 0l.38.56a.68.68 0 01-.76 0l.38-.56z" clip-rule="evenodd"/><path fill="#000" fill-rule="evenodd" d="M10 7.74a1.36 1.36 0 100 2.72 1.36 1.36 0 000-2.72zM7.28 9.1a2.72 2.72 0 115.44 0 2.72 2.72 0 01-5.44 0z" clip-rule="evenodd"/></svg>