<svg xmlns="http://www.w3.org/2000/svg" fill="none" viewBox="0 0 172 46"><path fill="#000" fill-opacity=".5" d="M171.45 30.86c-6.28-.23-12.6.24-17.27-1.33-1.58-.06 1.65-2.73.13-4.2l-6.3-.22c-1.5-2.15 1.7-4.13.2-6.29-1.51-2.15-7.85-.98-9.38-2.44-4.68-1.56 3.21-1.97 7.93-1.8-1.53-1.46 3.15.11 3.19-1.28.09-2.8.17-5.59-6.06-7.91-1.55-.76.09-2.8.13-4.2-18.87-.69-39.32-1.44-58.28.67C69.95 3.38 51.02-.32 35.37 1.4c-4.74.53-12.52-2.55-15.77.82l4.72.18c-4.79 1.92-9.44-.35-14.18.18-.04 1.4-.06 2.1-1.66 2.73 3.15.12 7.89-.4 11.01.4l-.06 2.1c-3.17.58-7.85-.99-11.01-.4l-.09 2.8c-.02.69-1.6.63-3.17.57l6.3.23-.09 2.8c-.02.7-1.6.64-3.17.58-.04 1.4-1.66 2.74-.1 3.5 1.57.05 3.14.1 4.71.17-6.3.46-9.56 3.84-9.63 5.94 1.6-.65 1.53 1.45 3.13.8-4.78 1.93-9.59 4.55-3.32 5.48 54.98 4.11 111.7 3.39 166.78 4 3.17-.58 1.64-2.03 1.68-3.43z"/><path fill="#fff" d="M18.85 19.07v5.53h-3.46V10.39h5.6c1.65 0 2.93.42 3.85 1.27a4.05 4.05 0 011.38 3.08c0 .82-.25 1.63-.75 2.41a4.1 4.1 0 01-2.45 1.66l3.48 5.8h-4.05l-3.2-5.54h-.4zm0-6.05v3.42h2.14c.53 0 .94-.15 1.25-.46.3-.31.45-.72.45-1.23 0-.5-.15-.92-.46-1.24a1.64 1.64 0 00-1.24-.49h-2.14zM43.12 10.35v2.63h-5.14v3.06h4.53v2.63h-4.53v3.3h5.14v2.63h-8.6V10.35h8.6zM51.7 24.6V10.39h9.26v2.63h-5.8v3.06h4.34v2.63h-4.33v5.89H51.7zM72.41 19.07v5.53h-3.46V10.39h5.61c1.65 0 2.93.42 3.85 1.27a4.05 4.05 0 011.37 3.08 4.1 4.1 0 01-3.2 4.07l3.49 5.8h-4.05l-3.2-5.54h-.4zm0-6.05v3.42h2.15c.53 0 .94-.15 1.25-.46.3-.31.45-.72.45-1.23 0-.5-.15-.92-.46-1.24a1.64 1.64 0 00-1.24-.49h-2.15zM96.69 10.35v2.63h-5.14v3.06h4.53v2.63h-4.53v3.3h5.14v2.63h-8.6V10.35h8.6zM110.1 12.92c-.44 0-.8.11-1.07.34-.28.23-.42.56-.42 1 0 .43.13.77.39 1.04.25.26.59.46 1 .6.41.15.87.28 1.38.4.5.14 1 .3 1.5.47.5.19.96.41 1.37.68.41.27.75.65 1 1.15.26.49.39 1.08.39 1.77 0 1.2-.49 2.23-1.47 3.09a5.65 5.65 0 01-3.86 1.28c-1.6 0-2.9-.38-3.87-1.15a3.93 3.93 0 01-1.47-3.28h3.69c.09 1.13.67 1.7 1.74 1.7.5 0 .89-.13 1.17-.4.28-.26.43-.6.43-1s-.13-.73-.39-1a2.68 2.68 0 00-1-.6c-.41-.15-.87-.28-1.38-.41-.5-.13-1-.3-1.5-.48-.5-.19-.96-.41-1.37-.68a2.9 2.9 0 01-1-1.13 3.75 3.75 0 01-.39-1.75c0-1.33.5-2.39 1.48-3.18.98-.8 2.24-1.2 3.77-1.2 1.54 0 2.78.35 3.72 1.05.94.7 1.44 1.79 1.48 3.29h-3.77a1.9 1.9 0 00-.5-1.19 1.45 1.45 0 00-1.06-.41zM132.93 10.39h3.46V24.6h-3.46v-5.9h-5.49v5.9h-3.46V10.39h3.46v5.69h5.49v-5.7z"/><path fill="#000" fill-opacity=".5" d="M43.29 39.58v5.62h-1.37v-3.17l-1.3 3.17H39.6l-1.3-3.17v3.17h-1.38v-5.62h1.57l1.62 3.88 1.61-3.88h1.57zM52.77 45.2l-.3-.94h-2.03l-.31.94h-1.46l1.96-5.64h1.66l1.95 5.64h-1.47zm-1.98-1.98h1.33l-.67-2-.66 2zM60.13 44.44a2.75 2.75 0 01-.84-2.07 2.83 2.83 0 012.88-2.88c.63 0 1.18.18 1.67.5.49.34.82.8 1.02 1.38h-1.64a1.08 1.08 0 00-1.02-.61c-.47 0-.84.14-1.11.44-.27.3-.4.68-.4 1.17 0 .5.13.89.4 1.18.27.3.63.44 1.08.44.33 0 .6-.08.8-.24.2-.17.34-.38.41-.66H61.8v-1.04h3.06v1.05c-.1.5-.39.98-.84 1.43a2.67 2.67 0 01-1.84.72c-.81 0-1.5-.27-2.05-.81zM74.02 45.2l-.31-.94h-2.02l-.31.94h-1.46l1.95-5.64h1.67l1.95 5.64h-1.47zm-1.99-1.98h1.33l-.66-2-.67 2zM84.64 39.58v1.04l-2.4 3.54h2.4v1.04h-3.97v-1.04l2.4-3.54h-2.4v-1.04h3.97zM90.35 45.2v-5.62h1.37v5.62h-1.37zM101.3 39.56h1.36v5.64h-1.37L99 41.65v3.55h-1.37v-5.64H99l2.3 3.55v-3.55zM111.97 39.56v1.05h-2.03v1.2h1.8v1.05h-1.8v1.3h2.03v1.04h-3.4v-5.64h3.4z"/></svg>