<svg xmlns="http://www.w3.org/2000/svg" fill="none" viewBox="0 0 138 55"><path fill="#000" fill-opacity=".5" d="M40.32 37.73L.29 20.57V.56l40.03 17.15v20.02z"/><path fill="#000" fill-opacity=".5" d="M40.73 17.48L.7 34.63v20.01L40.73 37.5V17.48z"/><path fill="#332E2E" d="M40.62 37.44l-23.12-9.9c-.05-.03-.05-.09 0-.1l23.12-9.92c.05-.02.1.02.1.08v19.77c0 .06-.05.1-.1.07z"/><path fill="#000" fill-opacity=".5" d="M65.47 18.97v1.37c0 .39-.17.62-.52.71-.03 0-.07.03-.13.03s-.16.04-.31.07l-.6.11V35.7h-1.46c-.23 0-.4-.05-.54-.12-.15-.07-.3-.2-.44-.42l-7.86-11.11c.02.25.04.48.04.71l.02.67v7.98l1.35.2c.36.1.53.33.53.72v1.36h-5.91v-1.36c0-.4.16-.62.52-.72l.12-.02c.07-.02.17-.05.31-.07l.63-.12V21.26c-.25-.04-.48-.1-.63-.11-.14-.03-.25-.07-.3-.07-.07 0-.11-.03-.13-.03-.36-.09-.52-.32-.52-.71v-1.37H52.67c.13 0 .23.03.32.03a.4.4 0 01.22.07.5.5 0 01.2.13l.2.28 7.9 11.17-.06-.79c-.02-.25-.02-.5-.02-.74v-7.86c-.87-.14-1.31-.2-1.35-.2-.36-.1-.52-.33-.52-.72v-1.37h5.91zM79.24 18.97v4.39h-1.2c-.27 0-.42-.16-.48-.43-.02-.19-.08-.67-.15-1.48h-4.84v4.62h5.1v2.4h-5.1v4.72h4.84c.07-.81.13-1.3.15-1.48.06-.28.2-.44.48-.44H79.24v4.41H68.18v-1.36c0-.4.17-.63.52-.72l.12-.02c.07 0 .17-.05.32-.07l.62-.12V21.26c-.25-.04-.48-.1-.62-.11-.15-.03-.25-.07-.32-.07-.06 0-.1-.03-.12-.03-.35-.09-.52-.32-.52-.71v-1.37h11.06zM104.9 18.97v1.37c0 .39-.17.62-.52.71-.02 0-.08.03-.23.05-.15.02-.33.07-.58.12L99.5 35.68H97l-3.3-11.41-.12-.47-.14-.55-.12.55-.13.47-3.33 11.41h-2.51L83.3 21.22l-.6-.12c-.15-.02-.21-.05-.23-.05-.36-.09-.52-.32-.52-.71v-1.37h5.62v1.37c0 .39-.17.62-.52.71-.03 0-.07 0-.1.03a.96.96 0 01-.24.07c-.1.02-.23.04-.35.09l2.14 8.44c.07.25.13.53.19.8l.15.93a32.21 32.21 0 01.39-1.73l2.95-9.99c.07-.19.17-.35.34-.49a.9.9 0 01.58-.23h.83c.25 0 .44.05.6.19.17.14.27.32.34.53l2.93 9.99c.15.48.3 1.04.4 1.64.04-.3.08-.58.14-.86.04-.27.1-.55.17-.78l2.14-8.41-.85-.21c-.36-.1-.52-.33-.52-.72v-1.36h5.61zM116.97 30.46a6.3 6.3 0 01-.36 2.1 4.68 4.68 0 01-2.66 2.9 5.5 5.5 0 01-2.2.4h-.31c-1.34 0-2.77-.3-4.31-.87v-4.3h1.19c.27 0 .41.14.47.42.05.2.1.85.2 1.92.6.2 1.55.3 2.84.3.8 0 1.42-.21 1.85-.63.44-.41.65-1.02.65-1.8 0-.44-.1-.81-.3-1.09-.18-.27-.45-.5-.78-.7a6.37 6.37 0 00-1.1-.48c-.42-.14-.86-.25-1.28-.41-.43-.16-.85-.35-1.27-.56-.41-.2-.78-.5-1.12-.85a3.46 3.46 0 01-.77-1.3 5.59 5.59 0 01.02-3.7 4.46 4.46 0 012.5-2.6 5 5 0 012.1-.42c1.48 0 2.91.32 4.3.95V24h-1.18c-.27 0-.42-.16-.48-.44-.04-.2-.1-.83-.19-1.87a5.93 5.93 0 00-3.43-.23c-.29.12-.54.25-.73.44-.18.18-.35.41-.45.67-.1.25-.15.55-.15.85 0 .4.13.72.31.98.19.25.44.48.77.67.34.18.71.37 1.13.5.41.14.83.3 1.26.47.44.16.86.37 1.27.57a4.1 4.1 0 011.92 2.06c.2.49.29 1.09.29 1.78zM127.93 25.48h-1.78v-3.57h-3.1v3.57h-1.77v-8.46h1.78v3.54h3.1v-3.54h1.77v8.46zM137.28 21.25c0 .61-.1 1.18-.29 1.7-.19.51-.46.96-.8 1.33a3.6 3.6 0 01-1.25.89c-.48.2-1.03.31-1.62.31h-2.95v-8.46h2.95a4 4 0 011.62.32 3.67 3.67 0 012.05 2.22c.19.52.28 1.08.28 1.69zm-1.81 0c0-.42-.05-.8-.15-1.13-.1-.34-.24-.63-.42-.86-.18-.23-.4-.41-.67-.54a2.1 2.1 0 00-.9-.19h-1.19v5.44h1.18c.34 0 .64-.06.9-.19.27-.12.5-.3.68-.54.18-.23.32-.52.42-.85.1-.34.15-.72.15-1.14z"/></svg>