<svg xmlns="http://www.w3.org/2000/svg" fill="none" viewBox="0 0 34 35"><path fill="#F4F6FF" fill-rule="evenodd" d="M24.08 11.67c0-.8.64-1.46 1.42-1.46h1.42c1.88 0 3.68.77 5 2.13a7.4 7.4 0 010 10.32 6.98 6.98 0 01-5 2.13H25.5c-.78 0-1.42-.65-1.42-1.46 0-.8.64-1.45 1.42-1.45h1.42c1.12 0 2.2-.47 3-1.29a4.44 4.44 0 000-6.18 4.19 4.19 0 00-3-1.29H25.5c-.78 0-1.42-.65-1.42-1.45z" clip-rule="evenodd"/><path fill="#F4F6FF" fill-rule="evenodd" d="M1.42 11.67c0-.8.63-1.46 1.41-1.46H25.5c.78 0 1.42.65 1.42 1.46v13.12a7.4 7.4 0 01-2.08 5.16 6.98 6.98 0 01-5 2.13H8.5a6.98 6.98 0 01-5-2.13 7.4 7.4 0 01-2.08-5.16V11.67zm2.83 1.46v11.66c0 1.16.45 2.27 1.24 3.1.8.82 1.88 1.28 3.01 1.28h11.33c1.13 0 2.21-.46 3-1.28a4.44 4.44 0 001.25-3.1V13.13H4.25zM8.5 0c.78 0 1.42.65 1.42 1.46v4.37c0 .8-.64 1.46-1.42 1.46-.78 0-1.42-.65-1.42-1.46V1.46C7.08.66 7.72 0 8.5 0zM14.17 0c.78 0 1.41.65 1.41 1.46v4.37c0 .8-.63 1.46-1.41 1.46-.79 0-1.42-.65-1.42-1.46V1.46c0-.8.63-1.46 1.42-1.46zM19.83 0c.79 0 1.42.65 1.42 1.46v4.37c0 .8-.63 1.46-1.42 1.46-.78 0-1.41-.65-1.41-1.46V1.46c0-.8.63-1.46 1.41-1.46z" clip-rule="evenodd"/></svg>