<svg xmlns="http://www.w3.org/2000/svg" fill="none" viewBox="0 0 171 48"><path fill="#000" fill-opacity=".5" d="M154.92 30.02h-1.8l.77-6.88h-6.62l-.76 6.88h-1.78l1.67-15.08h1.78l-.75 6.77h6.62l.75-6.77h1.78l-1.66 15.08zM170.58 21.42c0 1.29-.18 2.46-.54 3.51a8.38 8.38 0 01-1.48 2.72 6.59 6.59 0 01-5.08 2.37h-4.68l1.67-15.08h4.68c.83 0 1.59.16 2.26.47.67.32 1.24.76 1.7 1.34.48.57.83 1.25 1.09 2.05.25.8.38 1.67.38 2.62zm-1.82.04c0-.75-.09-1.44-.26-2.05a4.57 4.57 0 00-.75-1.55 3.32 3.32 0 00-2.77-1.32h-2.9l-1.32 11.9h2.9a4.5 4.5 0 003.68-1.87c.45-.6.8-1.33 1.05-2.19.24-.85.37-1.83.37-2.91zM64.5 26.05a.58.58 0 01.43.21l1.27 1.49a5.4 5.4 0 01-2.08 1.82c-.84.41-1.83.62-2.97.62a6.14 6.14 0 01-4.93-2.24 7.44 7.44 0 01-1.33-2.48 10.11 10.11 0 01.06-6.27c.36-.96.85-1.79 1.49-2.48.63-.7 1.39-1.23 2.27-1.62a7.24 7.24 0 015.68 0 5.92 5.92 0 011.99 1.46l-1.08 1.61c-.07.1-.16.19-.25.27a.6.6 0 01-.4.12.64.64 0 01-.32-.08l-.32-.2c-.12-.1-.24-.18-.38-.27a3.76 3.76 0 00-2.01-.55 3.53 3.53 0 00-2.83 1.32 4.7 4.7 0 00-.8 1.54c-.2.6-.29 1.28-.29 2.03 0 .78.1 1.48.29 2.1.2.6.45 1.12.79 1.53a3.18 3.18 0 002.58 1.28c.29 0 .55-.01.8-.04a3.04 3.04 0 001.81-.92c.08-.07.16-.13.25-.18a.6.6 0 01.27-.07zM81.75 22.35c0 1.1-.17 2.14-.51 3.1a7.6 7.6 0 01-1.46 2.48 6.68 6.68 0 01-5.19 2.26 6.72 6.72 0 01-5.2-2.26 7.58 7.58 0 01-1.46-2.49 9.06 9.06 0 01-.51-3.1c0-1.1.17-2.13.51-3.08a7.5 7.5 0 011.46-2.49 6.74 6.74 0 015.2-2.25 6.94 6.94 0 015.2 2.26c.62.7 1.1 1.53 1.45 2.49.34.95.51 1.98.51 3.08zm-3.27 0c0-.76-.1-1.44-.27-2.05a4.5 4.5 0 00-.76-1.54 3.32 3.32 0 00-1.22-.97 3.81 3.81 0 00-1.63-.33c-.62 0-1.17.1-1.66.33a3.3 3.3 0 00-1.22.97 4.5 4.5 0 00-.76 1.54c-.18.61-.27 1.3-.27 2.05 0 .76.1 1.45.27 2.06.17.6.43 1.12.76 1.54.33.42.74.74 1.22.96.49.22 1.04.33 1.66.33.6 0 1.15-.1 1.63-.33.48-.22.89-.54 1.22-.96.33-.42.59-.94.76-1.54.18-.61.27-1.3.27-2.06zM91.69 23.84c.12.29.23.59.33.89a17.13 17.13 0 01.71-1.75l3.55-7.75c.06-.14.12-.24.2-.31a.65.65 0 01.21-.17.7.7 0 01.28-.05h2.81v15.32h-2.82V21.2c0-.43.02-.89.06-1.39l-3.66 7.88a1.17 1.17 0 01-1.12.75h-.43a1.18 1.18 0 01-1.12-.75l-3.67-7.89a18.23 18.23 0 01.07 1.4v8.82h-2.82V14.7h2.81c.1 0 .2.02.28.05.08.04.15.1.22.17s.13.17.2.3l3.55 7.79.36.83zM111.93 14.69v2.73h-5.66V21h4.33v2.63h-4.33v3.65h5.66v2.74h-8.88V14.69h8.88zM127.22 22.35a8.8 8.8 0 01-.52 3.07 7.27 7.27 0 01-1.45 2.43 6.56 6.56 0 01-2.26 1.6c-.88.38-1.86.57-2.93.57h-5.37V14.69h5.37c1.07 0 2.05.2 2.93.58.88.38 1.63.92 2.26 1.6a7.2 7.2 0 011.45 2.42c.34.94.52 1.96.52 3.06zm-3.28 0a7.4 7.4 0 00-.27-2.05 4.54 4.54 0 00-.76-1.55 3.34 3.34 0 00-1.22-.98 3.77 3.77 0 00-1.63-.34h-2.14v9.86h2.14c.6 0 1.15-.12 1.63-.35.48-.22.89-.55 1.22-.97.33-.43.59-.95.76-1.56.18-.6.27-1.3.27-2.06zM135.53 24.19v5.83h-3.2v-5.83l-5-9.5h2.82c.28 0 .5.07.66.21.17.15.3.33.4.56l1.95 4.46.44.99c.13.3.25.6.35.9.1-.31.2-.61.34-.91l.43-.98 1.93-4.46c.03-.1.09-.19.15-.28l.23-.25a1.04 1.04 0 01.66-.24h2.84l-5 9.5zM14.97 47.37V16.43L43.72 31.9 14.97 47.37z"/><path fill="#332E2E" d="M.6 39.65V8.7l28.75 15.47L.59 39.65z"/><path stroke="#000" stroke-miterlimit="10" stroke-opacity=".5" stroke-width="1.022" d="M14.97 31.9V.95l28.75 15.48L14.97 31.9z"/></svg>