<svg xmlns="http://www.w3.org/2000/svg" fill="none" viewBox="0 0 131 50"><path fill="#000" fill-opacity=".5" d="M23.58 29.59c0 .43-.21.43-.14.78.07.28-.71 2.34-.85 2.63-.43 1.13-.93 2.27-1.35 3.4-.64 1.28-1.28 2.42-1.92 3.62-.28.5-3.62 4.76-3.97 5.04-.93.64-2.49 2.49-3.34 3.06-.57.35-2.7 1.13-3.2 1.2-.92.07-1.91.15-2.76-.07-1.5-.21-3.7-2.41-4.4-3.83-.36-.64-.79-1.2-1-1.92-.28-.92-.5-2.41-.57-3.48 0-5.96.71-6.81 2.42-12.56.14-.5.21-.92.35-1.42.07-.5.29-1 .43-1.42l.64-2.27c.35-1.56 2.2-4.26.5-4.62-.5-.07-.93 0-1.35-.35-.43-.28-.85-.5-1.28-.78-.14-.14-.35-.28-.43-.64.15-.07.29-.14.36-.14l2.9-.64c.65-.14 1.36-.21 2.07-.28.28-.08.57-.22.7-.57.22-.57.58-1.07.72-1.7.7-1.35 1.2-2.78 1.99-4.05a14.05 14.05 0 012.34-2.98c.14-.22.35-.43.5-.57.28-.22.56-.36.92-.29.42.15.85-.07 1.35-.07.07 0 .07 0 .14-.07 1-.21 1.35.22 1.63 1 .36.7.5 1.42.5 2.27 0 .42.07.78.14 1.13.07.29.07.64 0 1l-.21 1.13-.43 1.7c0 .22 0 .36-.07.57.21.14.43.14.71.14l2.63-.2h3.69c.42 0 .85.13 1.35.2-.14.22-.22.36-.29.43-.14.14-.35.28-.5.36-.49.2-1.06.5-1.55.7 0 .08-.08.08-.08.08-.78.07-1.63.42-2.48.35-.5 0-1 .07-1.5.22-.28.14-.63.14-.91.2l-1.64.22c-.28.07-.42.29-.56.57-.08.07-.08.14-.15.21-.85 2.42-1.98 4.69-2.9 7.03a6.9 6.9 0 00-.36.78c-.36.71-.64 1.35-.85 2.13a8.95 8.95 0 01-.93 1.85c-.28.5-.2 1.13-.56 1.63-.79 1.78-1.7 7.17-1.57 9.87.08 1.13.36 2.2.71 3.26.15.36.43.57.64.86.08 0 .15.07.29.07.64 0 1.91.07 2.55-.36a85.6 85.6 0 002.99-2.34c1.06-1.07 3.47-3.7 4.18-5.11.64-1.21 1-2.77 1.64-3.9.28-.72.99-2.28 1.34-3.06.35.07.85-.21.78 0zm-11-10.5c.7-1.78.92-3.2-1.42-1.71-.78 2.34-1.07 3.97-1.7 6.18-1.57 5.89.7 1.49 1.7-1.14.5-1.35.78-2.06 1.42-3.34zm2.2-8.17c.07-.28.14-.64.21-1 .07-.56.21-1.13.28-1.7.08-.64 0-1.28-.07-1.92-.07-.28-.28-.35-.42-.2-.29.2-.5.35-.64.7-.29.57-.57 1.2-.71 1.85-.07.21-.21.42-.29.64-.14.28-.28.56-.42.92-.14.7-.29 1.49-.5 2.27-.28 1.85 1.7 1.92 2.13.64.14-.71.29-1.42.43-2.2z"/><path fill="#000" fill-opacity=".5" d="M27.98 32.07c.28-1.06 2.77-6.1 3.27-6.95.42-.64.85-1.28 1.2-1.99.43-.57.86-1.2 1.14-1.78.28-.5.71-.78 1.14-.85.5 0 .92-.07 1.34-.07.86 0 1.35.64 1.78 1.56v.29c.14.92.35 1.91.5 2.9.14.93.07 1.92.07 2.85 0 .64.07 1.28 0 1.91.35.22.28.5.35.43.14-.14.64.07.78-.07.07-.14.21-.21.28-.35.29-.22.57-.43.86-.79.2-.35.42-.35.7 0 0 .22-.06.43-.28.57-.07.07-.14.22-.21.36-.07.21-.21.42-.43.5l-.21.2c-.07.08-.21.15-.21.22-.07.07-.14.07-.22.14-.28.29-.5.36-.78.36-.07 0-.35.07-.64.28-.2.15-.42.15-.56 0-.5-.28-1-.35-1.5-.57-.85-.2-1.48-.99-1.84-1.98a8.65 8.65 0 01-.21-4.05c.14-.64.14-1.2.2-1.77l.22-1.28a1 1 0 00.07-.78c-.07 0-.21-.07-.21.07-.07.07-.21.21-.28.35-.29.57-.64 1.14-1 1.78a3.4 3.4 0 00-.42 1.28c.07.28-.15.5-.22.7a21.5 21.5 0 00-1.63 3.7c-.35 1-.85 1.84-1.28 2.84-.64 1.49-1.42 2.84-1.91 4.4-.15.5-.43 1.06-.64 1.63-.14.43-1.92 3.83-2.34 4.2 0 .13-.22.2-.36.35-.85 1.2-1.85 1.13-2.98.85-.14.14-.29 0-.43-.14-1.13-.29-1.7-1.35-1.99-2.77-.2-1.21-.2-2.49-.2-3.7.06-1.84.13-3.69.28-5.53.35-2.06.07-1.92.63-3.83.5-2.77.22-2.35 1.21-5.12.07-.5.36-.85.5-1.34.5-1.28.92-2.42 1.49-3.55.28-.93.57-1.07 1.28-.93.5 0 1.13.15 1.77.29.43.07.85.21 1.42.7.5.93 1.2 1.57 1.92 2.42.64 1.14.78 2 .35 3.34-.35 1.42-.5.35-.85 1.84-.92 2.98-2.62 5.33-3.4 8.03-1.07 3.4 2.2.06 2.48-1.15z"/><path fill="#000" fill-opacity=".5" d="M67.24 30.02c-.07.5-.78 2.2-1.14 2.48-.21.07-.28.28-.43.36-.28.35-.5.63-.78.92-.14.14-.35.28-.42.5-.22.42-.5.64-.85.85-.15.07-.29.14-.36.28-.42.5-1 .92-1.42 1.35-.42.36-.85.57-1.35.71-.63.14-1.2.14-1.77.36-.5.21-1.06.21-1.63.35h-.64c-.85-.28-1.7-.43-2.41-1-.08-.06-.22-.14-.36-.2a4.15 4.15 0 01-1.7-1.21 7.6 7.6 0 00-1.5.92c-.28.14-.5.28-.78.5-.07 0-.14.07-.14.07-.42.56-1 .63-1.56.85-1 .28-1.99.28-2.9-.22-.36-.2-.72-.35-1.08-.5a5.23 5.23 0 01-3.4-4.6c-.14-1.14.07-2.2.57-3.2.5-.93.99-1.85 1.7-2.63 0-.07.07-.14.14-.21.92-1.42 2.06-2.77 3.13-4.05.78-.85 1.63-1.56 2.7-2.2.13-.07.42-.14.63-.14.43-.07.85-.14 1.35-.14h.21c.43.21 1 .21 1.5.35a1 1 0 00.42.14c.35.08.64.08.78.36.07.07.14.07.14.07.36 0 .64.36 1 .36.14 0 .28.07.35.14.43.42.92.78 1.2 1.27.08.22.15.36.22.57.14.64 0 1.07-.64 1.42-.64.29-1.2.71-1.77 1.14v.07c-.78.78-1.7 1.5-2.35 2.41-.28.36-.56.64-.85.93-.64.7-1.13 1.49-1.7 2.27-.22.35-.5.7-.71 1-.14.13-.21.28-.29.42a7.76 7.76 0 00-.85 2.34c-.07.07 0 .14 0 .28a.94.94 0 00.29-.2c.7-.72 1.49-1.43 2.34-2.07.43-.35.78-.7 1.06-1.2.15-.22.36-.43.57-.64.43-.5.85-1 1.2-1.56.5-.78 1-1.57 1.5-2.42.64-.07 1.13 0 1.56.5l.43.42c.5.64.56 1.35.64 2.06 0 .15-.08.22-.15.36-.28.64-.63 1.35-.99 1.99-.21.5-.28.99-.21 1.49.14.56.35 1.2.64 1.77.14.21.35.36.64.36.5-.07.99-.15 1.49-.36.42-.21.92-.43 1.35-.7l1.56-.93c.35-.36.78-.64 1.13-1 .93-.92 2.35-3.26 3.27-4.18.07-.08.14-.08.21-.15.5.08.85.36 1.2.72z"/><path fill="#000" fill-opacity=".5" d="M89.24 30.73c-.21.28-.28 1.34-.35 1.7-.07.21-.5.43-.64.57-.14.42-2.49 1-2.7 1-.71.42-2.55-.86-2.77-.93 0 0-1-.71-1.06-.78-.07-.14-1.21-1.14-1.35-1.28-.64-1.2-1-1.56-1.63-2.7-.64.85-.5.92-1.07 2.06-.57 1.06-1 2.2-1.7 3.34-.22.14-.29.35-.43.5a4.39 4.39 0 01-1.2 1.84 7.62 7.62 0 00-1 1.84c0 .07-.07.29-.07.36.07.5-.21.85-.43 1.27-.42.5-.78 1-1.06 1.64-.43 1-.85 1.77-1.85 2.41-.21.29-.5.43-.85.43-.21 0-.5 0-.78-.07-.35 0-.78.07-1.28.14-.99.42-1.98.14-2.41-.85-.21-.5-2.41-2-2.77-2.35-.5-.5-1.28-2.13-1.13-2.76 0-.57.14-1.07.2-1.57.3-1.06.43-2.34.72-3.47.21-.86.35-1.7.57-2.63.5-1.99.85-3.9 1.34-5.75.36-1.14.57-2.13.79-3.27.07-.64.07-1.34.28-1.98.07-.71 0-.43.07-1 .07-.21.07-.35.21-.57.22-.14.5-.07.71.15.07.14.29.35.36.42.28.36.14.43.64.43.14 0 .42.21.42.28.36.64.93 1 1.42 1.42.29.57.78.93.85 1.64-.28 0-.42 0-.7-.08-.15.43-.29.71-.08 1.21.36.71.36 1.5.43 2.34 0 .36.07.71.07.93.28.85.28 1.77.28 2.62v.57c.08.71.08 1.42.08 2.13-.08.57 0 1.14.07 1.63 0 .5 0 .5-.22 1l-.2-.07c-.08-.36-.08-.64-.15-.93 0-.07-.14-.14-.21-.2-.07 0-.14-.15-.22 0-.07 0-.14.13-.14.2 0 .79 0 1.5.07 2.2.07.36.15.79.07 1.14-.07.28 0 .5.15.64.07 0 .28.07.35 0 .07 0 .14-.14.07-.28-.07-.36.07-.86.21-1.35l.15-.15c0 .08.07.15.07.29.14.43.14.78.14 1.13.07.22.07.29.14.43 0 .14.07.21.07.21-.35.5.07.64.14 1 .14-.07.29-.22.36-.29 1.06-1.27 2.13-2.48 3.05-3.97l1.06-1.5c.5-.63.86-1.34 1.14-2.12.14-.5.42-1.14.7-1.56.79-1.85.93-.64 1.43-2.27.07-.22-.36-1.85-.43-2.13 0-1.35-.35-1.28.5-1.5.28 0 1.56.29 1.77.43.43.22.07.29.57.29.28-.07.5.07.71.14.14.07.21.14.28.35 0 .15.08.22.15.43.42 2.77.7 3.34 1.49 5.18.64.5 1.42 2.42 2.84 2.13.7-.21 1.06-.5 1.77-.64.64-.14 1.14-.92 1.77-1.28.08-.07.15-.07.22-.07.07.14 0 .21-.07.29zm-20.87-.5l.07.14c0 .07.07 0 .07 0 .07-.21.07-.35.14-.5v-.35c-.07-.07-.14-.14-.2-.07 0 .07-.08.21 0 .21l.2.22c-.07.14-.14.28-.28.35zm.14.64c0-.07-.07-.07-.07-.07-.07 0-.07.07-.07.07 0 .14.07.14.07.21.07-.07.07-.21.07-.21zm.07.64v.07h.08c0-.07 0-.07-.08-.07zm.43 7.02c-.07.15-.14.15-.14.22 0 0 0 .07.07.07 0 0 .07-.07.14-.07-.07-.07-.07-.07-.07-.22zm.07-.63c.14-.08.14-.22 0-.29h-.07c0 .07-.07.14-.07.29 0 0 .07 0 .07.14l.07-.14z"/><path fill="#000" fill-opacity=".5" d="M91.8 29.8c0 .14-.15.29-.29.36-.07.07-.21.14-.21.35-.07.29-.14.36-.36.43-.14.07-.14.14-.2.57.13 0 .2 0 .27.07v.07h-.5c.08-.21.08-.43.08-.57h-.14l-.22 1.5c.14.06.22.13.29.13.07.5.07.93.07 1.42 0 .5.14.93.28 1.28.21.29.78 1.85 1 2.13.99 1 2.2 2.27 3.33 2.34.35.07 2.41-.28 2.77-.35 1.7-.5 3.33-1.42 4.9-2.63 1.2-.92 2.34-1.98 3.55-2.98l.2-.21c.43-.5.86-.93 1.29-1.42a17.9 17.9 0 002.13-2.49c.2-.35.42-.7.85-.85a7.4 7.4 0 01-.57 1.78c-.07.2-.21.42-.35.56-.43.5-.79.93-1.07 1.5-.21.28-.5.56-.7.85-.08.07-.15.2-.3.42.22-.07.36-.14.57-.21-.07.43-.42.5-.5.85.08.07.08.14.22.22-.21.35-.42.56-.7.85-.44.35-.86.78-1.22 1.2-.63.71-1.34 1.28-2.05 1.85-.36.28-.64.57-1 .78-.28.21-.57.36-.85.57-.43.21-.85.42-1.28.7-.7.43-1.49.79-2.27.93l-.64.21c-.85.29-1.7.43-2.55.5-1 .14-5.19-.64-6.1-1-2.5-.99-2.99-2.2-4.13-3.19a3.68 3.68 0 01-.99-1.49c-.35-.92-.43-1.91-.5-2.98 0-2.2.57-4.33 1.5-6.32.2-.42.2-.42.14-1.06-.36.21-.57.35-.71.78-.22.64-.5 1.2-.86 1.84 0-.63.29-1.06.5-1.56a22.4 22.4 0 011.99-3.62c.78-1.2 1.63-2.27 2.63-3.26a16.1 16.1 0 013.19-2.7c.28-.14.5-.21.71-.35.36-.15.71-.22.92.14.22.21.5.14.64.28.22.14.29.43.43.57.7.35 3.4 1.06 4.05 1.49.2.14.35.43.5.71.35.64.63 1.35 1.13 1.77.14.15.21.43.28.64a7.77 7.77 0 01-1.06 5.32c-.29.5-.57.93-.78 1.5-.14.5-.43.92-.71 1.42-.29.57-.78.92-1.28 1.06-.43.22-.92.29-1.35.22-.21-.08-.43 0-.57-.29 0-.07-.07-.07-.07-.07-.56.07-.92-.57-1.35-.78a.75.75 0 01-.14-.35c.14-.29 0-.43-.07-.64-.28-.57-.57-1.21-.92-1.78-.07-.21-.29-.28-.5-.07-.07.35-.35.64-.35 1.06zm-6.75 6.4l.21.56c0 .21.22.35.08.64-.08-.07-.15-.07-.15-.14-.35-.71-.5-1.64-.64-2.56-.07-.07 0-.14 0-.21 0-1.07 0-2.06.29-3.12.07-.22.14-.43.14-.64v-.5c-.21.43-.35.71-.43 1l-.21.99c-.28 1.84-.21 3.55.57 5.04.14.28.35.5.57.78.14.14.28.21.5.28 0 .07.06 0 .2 0-.2-.35-.42-.64-.56-1-.22-.42-.22-.84-.43-1.2-.07 0-.14.07-.14.07zm0-4.55a7.31 7.31 0 00-.14 3.26c0 .07.07.07.14.15l.21-2.2c.08-.5.15-1-.07-1.43-.07.08-.14.15-.14.22zm5.04 1.77v0zm3.9-7.45c-.14.21-.35.5-.49.78-.28.5-.21.85.14 1.06.21.15.5.29.64.5.43.5 1 .43 1.56.36.5-.15.85-.64 1.14-1.14.5-1.2.78-1.42 1.2-2.63 1.14-2.7-1.13-2.06-2.2-1.2-.78.57-1.34 1.49-1.98 2.27z"/><path fill="#000" fill-opacity=".5" d="M129.28 33c-.36.7-1.56 2.27-1.56 3.05-.08.07-.29.28-.43.35-.21.22-.43.5-.57.86-.14.35-.35.5-.5.78-.99 1.77-1.63 2.77-3.26 4.33-.43.35-4.19 3.97-4.47 4.33-2.06 1.7-4.83.92-6.89.99a3.1 3.1 0 01-1.49-.28c-.64-.36-2.06-.93-2.48-1.56-.64-1.57-2.28-2.63-2.42-4.83-.07-.57-.35-.92-.42-1.5.07-2.26.42-4.54.7-6.88.43-1.63.79-3.4 1.07-5.04.71-3.05.92-3.4 2.27-6.17.71-1.85 1.35-2 2.06-3.84.5-1 1.06-1.99 1.63-2.84.43-1.06 1.14-2.06 1.78-3.12a34.59 34.59 0 014.4-6.1c1.06-1.07 2.2-2.2 3.26-3.13.64-.5 1.28-1.06 1.92-1.28.21-.14.43-.21.64-.28 1-.07 1.92.07 2.63.78.7.64.92 1.63.7 2.98-.13.85-.2 1.7-.42 2.49-.07.63-.35 1.2-.7 1.91-.5 1.21-1.07 2.34-1.85 3.48-.5.92-1.07 1.85-1.56 2.77-.86 1.28-1.57 2.63-2.42 3.83-1.49 2-2.77 4.12-4.12 6.1-2.2 3.77-1.98 4.41-2.77 8.17-.28 1.5-.14 2.35-.2 3.84.06.42.27 3.2.35 3.48.21.99.42 1.34.85 2.27.14.28 1.13.5 1.49.64.5.35 4.26-2.2 4.75-2.56 1.14-.64 2.06-1.7 3.06-2.7 1.06-1 1.56-2.13 2.48-3.48 1.28-1.7 1.7-3.12 3.05-4.96 1-.15.43 1.34-.56 3.12zm-11.36-12.78a89.53 89.53 0 004.69-8.1c.78-1.48 1.42-2.97 2.2-4.47.35-1.06.56-2.13.7-3.19.15-.36.15-.57-.2-.43-.36.07-.57.22-.79.36a5.12 5.12 0 00-2.41 2.06c-.5.57-.85 1.2-1.42 1.77a6.9 6.9 0 00-1.28 2.49c-.35.7-.71 1.56-1.06 2.27-.5 1.49-1.21 2.98-1.92 4.47-.28.71-.5 1.5-.78 2.2-.85 2.42-.5 1.2-1.28 3.62-.21.57-.07 2.2.85 1.2a53.98 53.98 0 002.7-4.25z"/></svg>