<svg xmlns="http://www.w3.org/2000/svg" fill="none" viewBox="0 0 121 36"><path fill="#000" fill-opacity=".5" d="M6.23 6.06v2.61c1.12-1.86 2.92-2.8 5.38-2.8 2.04 0 3.69.68 4.95 2.04 1.27 1.36 1.9 3.2 1.9 5.54v10.38h-5.42v-9.65c0-1.14-.3-2.03-.9-2.66a3.32 3.32 0 00-2.5-.93c-1.07 0-1.9.3-2.5.93-.61.63-.91 1.52-.91 2.66v9.65H.78V6.06h5.45zM23.8 21.51a9.23 9.23 0 01-2.35-6.53 9.3 9.3 0 012.36-6.55 7.51 7.51 0 015.75-2.56c2.26 0 4 .84 5.2 2.52V6.06h5.45v17.77h-5.45v-2.58a6.16 6.16 0 01-5.28 2.8c-2.21 0-4.1-.84-5.67-2.54zm9.79-3.31c.78-.77 1.17-1.85 1.17-3.25s-.39-2.48-1.17-3.23a3.8 3.8 0 00-5.42.01c-.78.77-1.18 1.85-1.18 3.25s.4 2.48 1.18 3.23a3.8 3.8 0 005.42-.01zM52.22 19.22h1.94v4.61H51.4c-2 0-3.54-.44-4.63-1.32-1.1-.88-1.64-2.4-1.64-4.54v-7.39h-1.66V6.06h1.66V1.73h5.44v4.33h3.57v4.53h-3.57v7.38c0 .83.55 1.25 1.66 1.25zM69.64 6.06h5.45v17.77h-5.45v-2.6c-1.13 1.86-2.92 2.8-5.38 2.8a6.45 6.45 0 01-4.96-2.04c-1.26-1.36-1.89-3.2-1.89-5.54V6.05h5.41v9.65c0 1.15.3 2.04.91 2.66.6.63 1.44.94 2.5.94s1.9-.31 2.5-.94c.6-.62.9-1.51.9-2.66V6.06zM84.99 6.06v3.32c1.27-2.34 2.97-3.5 5.1-3.5v5.53h-1.34c-1.25 0-2.2.3-2.82.9-.63.59-.94 1.63-.94 3.12v8.4h-5.45V6.06H85zM93.78 21.51a9.24 9.24 0 01-2.36-6.53 9.3 9.3 0 012.36-6.55 7.52 7.52 0 015.75-2.56c2.26 0 4 .84 5.2 2.52V6.06h5.45v17.77h-5.44v-2.58a6.16 6.16 0 01-5.29 2.8c-2.2 0-4.1-.84-5.67-2.54zm9.78-3.31c.78-.77 1.18-1.85 1.18-3.25s-.4-2.48-1.18-3.23a3.8 3.8 0 00-5.42.01c-.78.77-1.17 1.85-1.17 3.25s.39 2.48 1.17 3.23a3.8 3.8 0 005.42-.01zM114.64 23.83V.27h5.45v23.56h-5.45zM6.65 29.69v5.34h-.88v-3.66l-1.63 3.66h-.6L1.9 31.37v3.66h-.88V29.7h.95l1.87 4.19 1.87-4.2h.94zM12.73 35.03V29.7h.87v5.34h-.87zM23.2 29.68h.87v5.35h-.88l-2.63-3.99v4h-.88v-5.36h.88l2.63 3.98v-3.98zM33.1 29.68v.68h-2.08V32h1.85v.67h-1.85v1.69h2.08v.68h-2.95v-5.35h2.95zM39.97 32.86v2.17h-.87V29.7h1.84c.61 0 1.08.15 1.4.45.33.3.5.68.5 1.14 0 .36-.11.68-.33.97-.22.29-.55.47-1 .56l1.41 2.22h-1.07l-1.34-2.17h-.54zm0-2.49v1.8h.97c.34 0 .59-.07.75-.23a.88.88 0 00.25-.67c0-.28-.09-.5-.25-.66-.16-.16-.41-.24-.75-.24h-.97zM52.49 35.03l-.39-1.09h-2.23l-.39 1.1h-.91l1.91-5.36h1.02l1.91 5.35h-.92zm-2.39-1.77h1.77l-.88-2.52-.89 2.52zM59.17 29.69h.87v4.67h1.8v.67h-2.68V29.7zM80.75 29.69h.94l-1.58 5.34h-1L78 31l-1.2 4.04-.98.01-1.51-5.35h.93l1.1 4.35 1.2-4.35h1l1.1 4.33 1.12-4.33zM90.94 35.03l-.38-1.09h-2.24l-.38 1.1h-.92l1.92-5.36h1.01l1.92 5.35h-.93zm-2.38-1.77h1.76l-.88-2.52-.88 2.52zM97.34 30.37v-.68h3.73v.68h-1.42v4.66h-.88v-4.66h-1.43zM109.83 29.68v.68h-2.08V32h1.85v.67h-1.85v1.69h2.08v.68h-2.95v-5.35h2.95zM116.7 32.86v2.17h-.87V29.7h1.84c.61 0 1.08.15 1.4.45.33.3.5.68.5 1.14 0 .36-.11.68-.33.97-.22.29-.55.47-1 .56l1.41 2.22h-1.07l-1.34-2.17h-.53zm0-2.49v1.8h.98c.33 0 .58-.07.74-.23a.88.88 0 00.25-.67c0-.28-.08-.5-.25-.66-.16-.16-.41-.24-.74-.24h-.97z"/></svg>