<svg width="13" height="15" viewBox="0 0 13 15" fill="none" xmlns="http://www.w3.org/2000/svg">
<path fill-rule="evenodd" clip-rule="evenodd" d="M1.93557 2.74058C1.57924 2.74058 1.29038 3.02944 1.29038 3.38577V12.4184C1.29038 12.7748 1.57924 13.0636 1.93557 13.0636H10.9682C11.3246 13.0636 11.6134 12.7748 11.6134 12.4184V3.38577C11.6134 3.02944 11.3246 2.74058 10.9682 2.74058H1.93557ZM0 3.38577C0 2.31678 0.866584 1.4502 1.93557 1.4502H10.9682C12.0372 1.4502 12.9038 2.31678 12.9038 3.38577V12.4184C12.9038 13.4874 12.0372 14.354 10.9682 14.354H1.93557C0.866584 14.354 0 13.4874 0 12.4184V3.38577Z" fill="black"/>
<path fill-rule="evenodd" clip-rule="evenodd" d="M9.03264 0.160156C9.38897 0.160156 9.67783 0.449018 9.67783 0.805346V3.38611C9.67783 3.74243 9.38897 4.0313 9.03264 4.0313C8.67631 4.0313 8.38745 3.74243 8.38745 3.38611V0.805346C8.38745 0.449018 8.67631 0.160156 9.03264 0.160156Z" fill="black"/>
<path fill-rule="evenodd" clip-rule="evenodd" d="M3.87126 0.160156C4.22759 0.160156 4.51645 0.449018 4.51645 0.805346V3.38611C4.51645 3.74243 4.22759 4.0313 3.87126 4.0313C3.51494 4.0313 3.22607 3.74243 3.22607 3.38611V0.805346C3.22607 0.449018 3.51494 0.160156 3.87126 0.160156Z" fill="black"/>
<path fill-rule="evenodd" clip-rule="evenodd" d="M0 5.96697C0 5.61064 0.288861 5.32178 0.64519 5.32178H12.2586C12.6149 5.32178 12.9038 5.61064 12.9038 5.96697C12.9038 6.3233 12.6149 6.61216 12.2586 6.61216H0.64519C0.288861 6.61216 0 6.3233 0 5.96697Z" fill="black"/>
</svg>
