<svg width="36" height="37" viewBox="0 0 36 37" fill="none" xmlns="http://www.w3.org/2000/svg">
<path d="M24 31.9628V28.9628C24 27.3715 23.3679 25.8453 22.2426 24.7201C21.1174 23.5949 19.5913 22.9628 18 22.9628H7.5C5.9087 22.9628 4.38258 23.5949 3.25736 24.7201C2.13214 25.8453 1.5 27.3715 1.5 28.9628V31.9628" stroke="#F4F6FF" stroke-width="3" stroke-linecap="round" stroke-linejoin="round"/>
<path d="M12.75 16.9628C16.0637 16.9628 18.75 14.2765 18.75 10.9628C18.75 7.64906 16.0637 4.96277 12.75 4.96277C9.43629 4.96277 6.75 7.64906 6.75 10.9628C6.75 14.2765 9.43629 16.9628 12.75 16.9628Z" stroke="#F4F6FF" stroke-width="3" stroke-linecap="round" stroke-linejoin="round"/>
<path d="M25.5 16.9628L28.5 19.9628L34.5 13.9628" stroke="#F4F6FF" stroke-width="3" stroke-linecap="round" stroke-linejoin="round"/>
</svg>
