<svg width="17" height="18" viewBox="0 0 17 18" fill="none" xmlns="http://www.w3.org/2000/svg">
<path fill-rule="evenodd" clip-rule="evenodd" d="M8.70903 2.25174C4.99377 2.25174 1.98196 5.26355 1.98196 8.9788C1.98196 12.6941 4.99377 15.7059 8.70903 15.7059C12.4243 15.7059 15.4361 12.6941 15.4361 8.9788C15.4361 5.26355 12.4243 2.25174 8.70903 2.25174ZM0.487061 8.9788C0.487061 4.43793 4.16816 0.756836 8.70903 0.756836C13.2499 0.756836 16.931 4.43793 16.931 8.9788C16.931 13.5197 13.2499 17.2008 8.70903 17.2008C4.16816 17.2008 0.487061 13.5197 0.487061 8.9788Z" fill="black"/>
<path fill-rule="evenodd" clip-rule="evenodd" d="M8.70863 3.74658C9.12144 3.74658 9.45608 4.08123 9.45608 4.49403V8.51679L12.0327 9.8051C12.4019 9.98972 12.5516 10.4387 12.367 10.8079C12.1824 11.1771 11.7334 11.3268 11.3642 11.1422L8.37436 9.64728C8.12114 9.52067 7.96118 9.26186 7.96118 8.97874V4.49403C7.96118 4.08123 8.29583 3.74658 8.70863 3.74658Z" fill="black"/>
</svg>
