<svg width="20" height="21" viewBox="0 0 20 21" fill="none" xmlns="http://www.w3.org/2000/svg">
<path fill-rule="evenodd" clip-rule="evenodd" d="M9.99988 3.66257C8.55676 3.66257 7.17274 4.23585 6.15229 5.2563C5.13185 6.27674 4.55857 7.66076 4.55857 9.10388C4.55857 11.2111 5.9296 13.2558 7.43291 14.8426C8.17066 15.6213 8.91071 16.2588 9.46709 16.7019C9.67416 16.8668 9.85502 17.0041 9.99988 17.1112C10.1447 17.0041 10.3256 16.8668 10.5327 16.7019C11.089 16.2588 11.8291 15.6213 12.5669 14.8426C14.0702 13.2558 15.4412 11.2111 15.4412 9.10388C15.4412 7.66076 14.8679 6.27674 13.8475 5.2563C12.827 4.23585 11.443 3.66257 9.99988 3.66257ZM9.99988 17.946C9.62259 18.5119 9.62242 18.5118 9.62222 18.5117L9.62028 18.5104L9.61575 18.5074L9.60016 18.4968C9.58692 18.4878 9.56803 18.4749 9.54387 18.4582C9.49556 18.4247 9.42614 18.376 9.33862 18.3128C9.16365 18.1864 8.91594 18.0019 8.61971 17.766C8.02831 17.2951 7.238 16.6148 6.44538 15.7782C4.88795 14.1342 3.19824 11.7578 3.19824 9.10388C3.19824 7.29998 3.91484 5.56995 5.1904 4.2944C6.46595 3.01885 8.19597 2.30225 9.99988 2.30225C11.8038 2.30225 13.5338 3.01885 14.8094 4.2944C16.0849 5.56995 16.8015 7.29998 16.8015 9.10388C16.8015 11.7578 15.1118 14.1342 13.5544 15.7782C12.7618 16.6148 11.9714 17.2951 11.3801 17.766C11.0838 18.0019 10.8361 18.1864 10.6611 18.3128C10.5736 18.376 10.5042 18.4247 10.4559 18.4582C10.4317 18.4749 10.4128 18.4878 10.3996 18.4968L10.384 18.5074L10.3795 18.5104L10.378 18.5114C10.3778 18.5115 10.3772 18.5119 9.99988 17.946ZM9.99988 17.946L10.3772 18.5119C10.1487 18.6643 9.85069 18.664 9.62222 18.5117L9.99988 17.946Z" fill="black"/>
<path fill-rule="evenodd" clip-rule="evenodd" d="M9.99995 7.74363C9.24866 7.74363 8.63962 8.35267 8.63962 9.10396C8.63962 9.85524 9.24866 10.4643 9.99995 10.4643C10.7512 10.4643 11.3603 9.85524 11.3603 9.10396C11.3603 8.35267 10.7512 7.74363 9.99995 7.74363ZM7.2793 9.10396C7.2793 7.60138 8.49738 6.3833 9.99995 6.3833C11.5025 6.3833 12.7206 7.60138 12.7206 9.10396C12.7206 10.6065 11.5025 11.8246 9.99995 11.8246C8.49738 11.8246 7.2793 10.6065 7.2793 9.10396Z" fill="black"/>
</svg>
