<svg width="21" height="20" viewBox="0 0 21 20" fill="none" xmlns="http://www.w3.org/2000/svg">
<g clip-path="url(#clip0)">
<path d="M13.4068 4.16659C14.2207 4.32539 14.9688 4.72347 15.5552 5.30986C16.1416 5.89626 16.5397 6.64431 16.6985 7.45825L13.4068 4.16659ZM13.4068 0.833252C15.0979 1.02112 16.6748 1.7784 17.8787 2.98076C19.0825 4.18312 19.8418 5.75909 20.0318 7.44992L13.4068 0.833252ZM19.1985 14.0999V16.5999C19.1994 16.832 19.1519 17.0617 19.0589 17.2744C18.9659 17.487 18.8295 17.6779 18.6585 17.8348C18.4875 17.9917 18.2856 18.1112 18.0658 18.1855C17.8459 18.2599 17.6129 18.2875 17.3818 18.2666C14.8175 17.988 12.3543 17.1117 10.1901 15.7083C8.17665 14.4288 6.46957 12.7217 5.19013 10.7083C3.78178 8.53426 2.90533 6.05908 2.63179 3.48325C2.61097 3.25281 2.63836 3.02055 2.71221 2.80127C2.78607 2.58199 2.90477 2.38049 3.06077 2.2096C3.21676 2.03871 3.40663 1.90218 3.61829 1.80869C3.82994 1.7152 4.05875 1.6668 4.29013 1.66659H6.79013C7.19455 1.6626 7.58662 1.80582 7.89326 2.06953C8.1999 2.33324 8.40019 2.69946 8.45679 3.09992C8.56231 3.89997 8.758 4.68552 9.04013 5.44159C9.15225 5.73986 9.17651 6.06401 9.11005 6.37565C9.04359 6.68729 8.88918 6.97334 8.66513 7.19992L7.60679 8.25825C8.79309 10.3445 10.5205 12.072 12.6068 13.2583L13.6651 12.1999C13.8917 11.9759 14.1778 11.8215 14.4894 11.755C14.801 11.6885 15.1252 11.7128 15.4235 11.8249C16.1795 12.107 16.9651 12.3027 17.7651 12.4083C18.1699 12.4654 18.5396 12.6693 18.8039 12.9812C19.0682 13.2931 19.2086 13.6912 19.1985 14.0999Z" stroke="#C29C51" stroke-width="2" stroke-linecap="round" stroke-linejoin="round"/>
</g>
<defs>
<clipPath id="clip0">
<rect width="20" height="20" fill="white" transform="translate(0.865112)"/>
</clipPath>
</defs>
</svg>
