<svg width="248" height="16" viewBox="0 0 248 16" fill="none" xmlns="http://www.w3.org/2000/svg">
<path d="M247.354 7.99833C247.549 7.80307 247.549 7.48648 247.354 7.29122L244.172 4.10924C243.976 3.91398 243.66 3.91398 243.464 4.10924C243.269 4.3045 243.269 4.62109 243.464 4.81635L246.293 7.64478L243.464 10.4732C243.269 10.6685 243.269 10.985 243.464 11.1803C243.66 11.3756 243.976 11.3756 244.172 11.1803L247.354 7.99833ZM0 8.14478H1.00816V7.14478H0V8.14478ZM6.04898 8.14478H8.06531V7.14478H6.04898V8.14478ZM13.1061 8.14478H15.1224V7.14478H13.1061V8.14478ZM20.1633 8.14478H22.1796V7.14478H20.1633V8.14478ZM27.2204 8.14478H29.2367V7.14478H27.2204V8.14478ZM34.2776 8.14478H36.2939V7.14478H34.2776V8.14478ZM41.3347 8.14478H43.351V7.14478H41.3347V8.14478ZM48.3918 8.14478H50.4082V7.14478H48.3918V8.14478ZM55.449 8.14478H57.4653V7.14478H55.449V8.14478ZM62.5061 8.14478H64.5225V7.14478H62.5061V8.14478ZM69.5633 8.14478H71.5796V7.14478H69.5633V8.14478ZM76.6204 8.14478H78.6367V7.14478H76.6204V8.14478ZM83.6776 8.14478H85.6939V7.14478H83.6776V8.14478ZM90.7347 8.14478H92.751V7.14478H90.7347V8.14478ZM97.7918 8.14478H99.8082V7.14478H97.7918V8.14478ZM104.849 8.14478H106.865V7.14478H104.849V8.14478ZM111.906 8.14478H113.922V7.14478H111.906V8.14478ZM118.963 8.14478H120.98V7.14478H118.963V8.14478ZM126.02 8.14478H128.037V7.14478H126.02V8.14478ZM133.078 8.14478H135.094V7.14478H133.078V8.14478ZM140.135 8.14478H142.151V7.14478H140.135V8.14478ZM147.192 8.14478H149.208V7.14478H147.192V8.14478ZM154.249 8.14478H156.265V7.14478H154.249V8.14478ZM161.306 8.14478H163.322V7.14478H161.306V8.14478ZM168.363 8.14478H170.38V7.14478H168.363V8.14478ZM175.42 8.14478H177.437V7.14478H175.42V8.14478ZM182.478 8.14478H184.494V7.14478H182.478V8.14478ZM189.535 8.14478H191.551V7.14478H189.535V8.14478ZM196.592 8.14478H198.608V7.14478H196.592V8.14478ZM203.649 8.14478H205.665V7.14478H203.649V8.14478ZM210.706 8.14478H212.722V7.14478H210.706V8.14478ZM217.763 8.14478H219.78V7.14478H217.763V8.14478ZM224.82 8.14478H226.837V7.14478H224.82V8.14478ZM231.878 8.14478H233.894V7.14478H231.878V8.14478ZM238.935 8.14478H240.951V7.14478H238.935V8.14478ZM245.992 8.14478H247V7.14478H245.992V8.14478ZM247.707 8.35188C248.098 7.96136 248.098 7.32819 247.707 6.93767L241.343 0.573708C240.953 0.183183 240.319 0.183183 239.929 0.573708C239.538 0.964232 239.538 1.5974 239.929 1.98792L245.586 7.64478L239.929 13.3016C239.538 13.6922 239.538 14.3253 239.929 14.7158C240.319 15.1064 240.953 15.1064 241.343 14.7158L247.707 8.35188ZM0 8.64478H1.00816V6.64478H0V8.64478ZM6.04898 8.64478H8.06531V6.64478H6.04898V8.64478ZM13.1061 8.64478H15.1224V6.64478H13.1061V8.64478ZM20.1633 8.64478H22.1796V6.64478H20.1633V8.64478ZM27.2204 8.64478H29.2367V6.64478H27.2204V8.64478ZM34.2776 8.64478H36.2939V6.64478H34.2776V8.64478ZM41.3347 8.64478H43.351V6.64478H41.3347V8.64478ZM48.3918 8.64478H50.4082V6.64478H48.3918V8.64478ZM55.449 8.64478H57.4653V6.64478H55.449V8.64478ZM62.5061 8.64478H64.5225V6.64478H62.5061V8.64478ZM69.5633 8.64478H71.5796V6.64478H69.5633V8.64478ZM76.6204 8.64478H78.6367V6.64478H76.6204V8.64478ZM83.6776 8.64478H85.6939V6.64478H83.6776V8.64478ZM90.7347 8.64478H92.751V6.64478H90.7347V8.64478ZM97.7918 8.64478H99.8082V6.64478H97.7918V8.64478ZM104.849 8.64478H106.865V6.64478H104.849V8.64478ZM111.906 8.64478H113.922V6.64478H111.906V8.64478ZM118.963 8.64478H120.98V6.64478H118.963V8.64478ZM126.02 8.64478H128.037V6.64478H126.02V8.64478ZM133.078 8.64478H135.094V6.64478H133.078V8.64478ZM140.135 8.64478H142.151V6.64478H140.135V8.64478ZM147.192 8.64478H149.208V6.64478H147.192V8.64478ZM154.249 8.64478H156.265V6.64478H154.249V8.64478ZM161.306 8.64478H163.322V6.64478H161.306V8.64478ZM168.363 8.64478H170.38V6.64478H168.363V8.64478ZM175.42 8.64478H177.437V6.64478H175.42V8.64478ZM182.478 8.64478H184.494V6.64478H182.478V8.64478ZM189.535 8.64478H191.551V6.64478H189.535V8.64478ZM196.592 8.64478H198.608V6.64478H196.592V8.64478ZM203.649 8.64478H205.665V6.64478H203.649V8.64478ZM210.706 8.64478H212.722V6.64478H210.706V8.64478ZM217.763 8.64478H219.78V6.64478H217.763V8.64478ZM224.82 8.64478H226.837V6.64478H224.82V8.64478ZM231.878 8.64478H233.894V6.64478H231.878V8.64478ZM238.935 8.64478H240.951V6.64478H238.935V8.64478ZM245.992 8.64478H247V6.64478H245.992V8.64478Z" fill="black"/>
</svg>
