<svg width="19" height="17" viewBox="0 0 19 17" fill="none" xmlns="http://www.w3.org/2000/svg">
<path fill-rule="evenodd" clip-rule="evenodd" d="M11.1108 1.11442C11.7202 0.861903 12.3734 0.731934 13.033 0.731934C13.6927 0.731934 14.3459 0.861903 14.9553 1.11442C15.5646 1.36688 16.1182 1.7369 16.5845 2.20334C17.051 2.66963 17.4212 3.2235 17.6737 3.8328C17.9262 4.44222 18.0562 5.09542 18.0562 5.75508C18.0562 6.41475 17.9262 7.06795 17.6737 7.67737C17.4212 8.28673 17.0512 8.84038 16.5847 9.3067C16.5846 9.30674 16.5847 9.30665 16.5847 9.3067L9.7551 16.1363C9.45339 16.438 8.96422 16.438 8.66251 16.1363L1.83294 9.3067C0.890996 8.36475 0.361816 7.0872 0.361816 5.75508C0.361816 4.42297 0.890996 3.14542 1.83294 2.20347C2.77489 1.26153 4.05244 0.732347 5.38455 0.732347C6.71667 0.732347 7.99422 1.26153 8.93616 2.20347L9.2088 2.47611L9.48131 2.2036C9.48135 2.20356 9.48127 2.20364 9.48131 2.2036C9.94763 1.7371 10.5014 1.36691 11.1108 1.11442ZM13.033 2.27708C12.5764 2.27708 12.1241 2.36706 11.7022 2.54188C11.2803 2.7167 10.897 2.97293 10.5742 3.29593L9.7551 4.11499C9.45339 4.4167 8.96422 4.4167 8.66251 4.11499L7.84358 3.29606C7.1914 2.64389 6.30687 2.2775 5.38455 2.2775C4.46224 2.2775 3.5777 2.64389 2.92553 3.29606C2.27335 3.94823 1.90697 4.83277 1.90697 5.75508C1.90697 6.6774 2.27335 7.56194 2.92553 8.21411L9.2088 14.4974L15.4921 8.21411C15.8151 7.89126 16.0714 7.5078 16.2463 7.08589C16.4211 6.66399 16.511 6.21177 16.511 5.75508C16.511 5.2984 16.4211 4.84618 16.2463 4.42427C16.0714 4.00237 15.8152 3.61904 15.4922 3.29619C15.1693 2.97318 14.7858 2.7167 14.3639 2.54188C13.942 2.36706 13.4897 2.27708 13.033 2.27708Z" fill="#127681"/>
</svg>
