<svg width="36" height="37" viewBox="0 0 36 37" fill="none" xmlns="http://www.w3.org/2000/svg">
<g clip-path="url(#clip0)">
<path d="M22.575 7.96277C24.0401 8.24862 25.3866 8.96515 26.4421 10.0207C27.4976 11.0762 28.2142 12.4227 28.5 13.8878L22.575 7.96277ZM22.575 1.96277C25.6189 2.30092 28.4574 3.66403 30.6244 5.82828C32.7913 7.99253 34.158 10.8293 34.5 13.8728L22.575 1.96277ZM33 25.8428V30.3428C33.0017 30.7605 32.9161 31.174 32.7488 31.5568C32.5814 31.9396 32.3359 32.2832 32.0281 32.5656C31.7203 32.848 31.3569 33.063 30.9611 33.1968C30.5654 33.3307 30.1461 33.3804 29.73 33.3428C25.1142 32.8412 20.6805 31.264 16.785 28.7378C13.1607 26.4348 10.088 23.362 7.785 19.7378C5.24997 15.8246 3.67236 11.3693 3.18 6.73277C3.14251 6.31797 3.19181 5.89991 3.32475 5.50521C3.45769 5.1105 3.67136 4.7478 3.95215 4.4402C4.23294 4.1326 4.57471 3.88683 4.95569 3.71855C5.33666 3.55027 5.74851 3.46316 6.165 3.46277H10.665C11.393 3.4556 12.0987 3.71339 12.6506 4.18807C13.2026 4.66275 13.5631 5.32194 13.665 6.04277C13.8549 7.48287 14.2072 8.89686 14.715 10.2578C14.9168 10.7947 14.9605 11.3781 14.8409 11.9391C14.7212 12.5 14.4433 13.0149 14.04 13.4228L12.135 15.3278C14.2703 19.0831 17.3797 22.1924 21.135 24.3278L23.04 22.4228C23.4478 22.0195 23.9627 21.7415 24.5237 21.6219C25.0846 21.5023 25.6681 21.546 26.205 21.7478C27.5659 22.2556 28.9799 22.6078 30.42 22.7978C31.1486 22.9006 31.8141 23.2676 32.2898 23.829C32.7655 24.3904 33.0183 25.1071 33 25.8428Z" stroke="#F4F6FF" stroke-width="3" stroke-linecap="round" stroke-linejoin="round"/>
</g>
<defs>
<clipPath id="clip0">
<rect width="36" height="36" fill="white" transform="translate(0 0.462769)"/>
</clipPath>
</defs>
</svg>
