<svg width="121" height="36" viewBox="0 0 121 36" fill="none" xmlns="http://www.w3.org/2000/svg">
<path d="M6.22763 6.06276V8.6748C7.35322 6.80599 9.14736 5.87158 11.6101 5.87158C13.6486 5.87158 15.299 6.55146 16.5626 7.91008C17.8251 9.2687 18.4575 11.116 18.4575 13.452V23.8346H13.0422V14.1839C13.0422 13.038 12.7402 12.1511 12.135 11.5244C11.5297 10.8988 10.6972 10.5855 9.63496 10.5855C8.57273 10.5855 7.74011 10.8988 7.13489 11.5244C6.52968 12.1511 6.22763 13.0369 6.22763 14.1839V23.8346H0.781876V6.06276H6.22763Z" fill="black" fill-opacity="0.5"/>
<path d="M23.8083 21.5098C22.2358 19.8107 21.4508 17.6353 21.4508 14.9803C21.4508 12.3264 22.2358 10.1453 23.8083 8.43489C25.3784 6.72558 27.2959 5.87036 29.5572 5.87036C31.8186 5.87036 33.5539 6.70974 34.7643 8.38624V6.06154H40.2113V23.8334H34.7643V21.253C33.4476 23.1218 31.6851 24.0551 29.4769 24.0551C27.2687 24.0573 25.3784 23.2089 23.8083 21.5098ZM33.5856 18.1975C34.3707 17.4328 34.7643 16.3502 34.7643 14.9486C34.7643 13.547 34.3718 12.47 33.5856 11.7155C32.7994 10.9621 31.8978 10.5854 30.8785 10.5854C29.8593 10.5854 28.9565 10.9677 28.1715 11.7313C27.3864 12.496 26.9927 13.5786 26.9927 14.9803C26.9927 16.3819 27.3853 17.4599 28.1715 18.2133C28.9565 18.9667 29.8604 19.3435 30.8785 19.3435C31.8978 19.3446 32.8005 18.9622 33.5856 18.1975Z" fill="black" fill-opacity="0.5"/>
<path d="M52.2183 19.2166H54.1606V23.8343H51.3902C49.3936 23.8343 47.8494 23.3942 46.7555 22.5119C45.6616 21.6318 45.1152 20.1182 45.1152 17.9733V10.5841H43.4591V6.06135H45.1152V1.73096H50.5621V6.06248H54.1289V10.5852H50.5621V17.9745C50.5621 18.8025 51.1142 19.2166 52.2183 19.2166Z" fill="black" fill-opacity="0.5"/>
<path d="M69.6394 6.0625H75.0863V23.8343H69.6394V21.2223C68.5138 23.0911 66.7197 24.0255 64.2569 24.0255C62.2196 24.0255 60.568 23.3467 59.3044 21.987C58.0408 20.6284 57.4096 18.7811 57.4096 16.445V6.0625H62.8237V15.7131C62.8237 16.8602 63.1268 17.746 63.7321 18.3727C64.3373 18.9994 65.1699 19.3127 66.2321 19.3127C67.2944 19.3127 68.1269 18.9994 68.7321 18.3727C69.3373 17.7471 69.6394 16.8602 69.6394 15.7131V6.0625Z" fill="black" fill-opacity="0.5"/>
<path d="M84.9893 6.06276V9.37504C86.2642 7.03902 87.9622 5.87158 90.0855 5.87158V11.4135H88.7484C87.495 11.4135 86.556 11.7111 85.9293 12.305C85.3026 12.9 84.9893 13.9396 84.9893 15.4261V23.8346H79.5434V6.06276H84.9893Z" fill="black" fill-opacity="0.5"/>
<path d="M93.7801 21.5098C92.2088 19.8107 91.4237 17.6353 91.4237 14.9803C91.4237 12.3264 92.2088 10.1453 93.7801 8.43489C95.3514 6.72558 97.2677 5.87036 99.5291 5.87036C101.79 5.87036 103.526 6.70974 104.736 8.38624V6.06154H110.182V23.8334H104.736V21.253C103.419 23.1218 101.657 24.0551 99.4499 24.0551C97.2417 24.0573 95.3514 23.2089 93.7801 21.5098ZM103.559 18.1975C104.344 17.4328 104.737 16.3502 104.737 14.9486C104.737 13.547 104.344 12.47 103.559 11.7155C102.773 10.9621 101.871 10.5854 100.851 10.5854C99.8322 10.5854 98.9295 10.9677 98.1444 11.7313C97.3582 12.496 96.9657 13.5786 96.9657 14.9803C96.9657 16.3819 97.3582 17.4599 98.1444 18.2133C98.9295 18.9667 99.8322 19.3435 100.851 19.3435C101.871 19.3446 102.772 18.9622 103.559 18.1975Z" fill="black" fill-opacity="0.5"/>
<path d="M114.641 23.8344V0.266113H120.087V23.8344H114.641Z" fill="black" fill-opacity="0.5"/>
<path d="M6.65074 29.6892V35.0343H5.774V31.3736L4.14273 35.0343H3.53527L1.89723 31.3736V35.0343H1.02056V29.6892H1.96628L3.843 33.8805L5.71179 29.6892H6.65074Z" fill="black" fill-opacity="0.5"/>
<path d="M12.7266 35.0329V29.6877H13.6033V35.0329H12.7266Z" fill="black" fill-opacity="0.5"/>
<path d="M23.194 29.6797H24.0707V35.0327H23.194L20.556 31.0406V35.0327H19.6792V29.6797H20.556L23.194 33.6639V29.6797Z" fill="black" fill-opacity="0.5"/>
<path d="M33.1003 29.6796V30.364H31.0233V31.9862H32.8684V32.6627H31.0233V34.3471H33.1003V35.0315H30.1466V29.6785H33.1003V29.6796Z" fill="black" fill-opacity="0.5"/>
<path d="M39.9749 32.8643V35.0329H39.0981V29.6877H40.9443C41.5496 29.6877 42.0156 29.8371 42.3437 30.1368C42.6717 30.4366 42.8358 30.8179 42.8358 31.2794C42.8358 31.638 42.7272 31.9615 42.5088 32.2489C42.2905 32.5362 41.9556 32.7229 41.5054 32.81L42.9206 35.0329H41.8516L40.5133 32.8643H39.9749ZM39.9749 30.371V32.1787H40.9443C41.2769 32.1787 41.5258 32.0996 41.6909 31.94C41.855 31.7805 41.9364 31.5588 41.9364 31.2749C41.9364 30.9898 41.855 30.7681 41.6909 30.6097C41.5258 30.4513 41.2781 30.371 40.9443 30.371H39.9749Z" fill="black" fill-opacity="0.5"/>
<path d="M52.4886 35.0327L52.104 33.9411H49.8664L49.4818 35.0327H48.5666L50.4818 29.6797H51.4966L53.4118 35.0327H52.4886ZM50.104 33.2555H51.8653L50.9886 30.7408L50.104 33.2555Z" fill="black" fill-opacity="0.5"/>
<path d="M59.1653 29.6877H60.0408V34.3632H61.8486V35.0317H59.1641V29.6877H59.1653Z" fill="black" fill-opacity="0.5"/>
<path d="M80.7516 29.6877H81.6905L80.1068 35.0329H79.1135L77.9913 30.9875L76.7991 35.0329L75.8148 35.0408L74.299 29.6877H75.23L76.3375 34.0408L77.5366 29.6877H78.5208L79.6362 34.017L80.7516 29.6877Z" fill="black" fill-opacity="0.5"/>
<path d="M90.943 35.0327L90.5583 33.9411H88.3208L87.9361 35.0327H87.0209L88.9361 29.6797H89.9509L91.866 35.0327H90.943ZM88.5583 33.2555H90.3196L89.443 30.7408L88.5583 33.2555Z" fill="black" fill-opacity="0.5"/>
<path d="M97.3413 30.3709V29.6865H101.071V30.3709H99.649V35.0316H98.7723V30.3709H97.3413Z" fill="black" fill-opacity="0.5"/>
<path d="M109.831 29.6796V30.364H107.754V31.9862H109.601V32.6627H107.754V34.3471H109.831V35.0315H106.878V29.6785H109.831V29.6796Z" fill="black" fill-opacity="0.5"/>
<path d="M116.707 32.8643V35.0329H115.83V29.6877H117.675C118.281 29.6877 118.747 29.8371 119.075 30.1368C119.403 30.4366 119.567 30.8179 119.567 31.2794C119.567 31.638 119.458 31.9615 119.24 32.2489C119.021 32.5362 118.687 32.7229 118.235 32.81L119.65 35.0329H118.583L117.244 32.8643H116.707ZM116.707 30.371V32.1787H117.676C118.009 32.1787 118.258 32.0996 118.423 31.94C118.587 31.7805 118.669 31.5588 118.669 31.2749C118.669 30.9898 118.587 30.7681 118.423 30.6097C118.259 30.4513 118.01 30.371 117.676 30.371H116.707Z" fill="black" fill-opacity="0.5"/>
</svg>
