<svg width="171" height="48" viewBox="0 0 171 48" fill="none" xmlns="http://www.w3.org/2000/svg">
<path d="M154.916 30.0209H153.126L153.893 23.1395H147.273L146.515 30.0209H144.725L146.401 14.9414H148.181L147.434 21.7074H154.054L154.801 14.9414H156.582L154.916 30.0209Z" fill="black" fill-opacity="0.5"/>
<path d="M170.578 21.4232C170.578 22.7071 170.4 23.8768 170.043 24.9323C169.686 25.9889 169.193 26.8927 168.564 27.6473C167.936 28.4018 167.187 28.9855 166.321 29.3996C165.452 29.8136 164.506 30.0206 163.484 30.0206H158.796L160.471 14.9412H165.15C165.982 14.9412 166.736 15.0995 167.409 15.414C168.081 15.7296 168.651 16.1731 169.118 16.7455C169.586 17.3179 169.945 18.0012 170.198 18.7976C170.451 19.594 170.578 20.4695 170.578 21.4232ZM168.759 21.465C168.759 20.7071 168.673 20.0238 168.498 19.413C168.325 18.8021 168.076 18.2851 167.751 17.8609C167.426 17.4367 167.029 17.1109 166.562 16.8824C166.095 16.6539 165.567 16.5407 164.981 16.5407H162.082L160.756 28.4312H163.656C164.412 28.4312 165.104 28.2717 165.729 27.9527C166.355 27.6337 166.89 27.1744 167.339 26.5737C167.788 25.973 168.136 25.2445 168.386 24.3848C168.634 23.5262 168.759 22.5522 168.759 21.465Z" fill="black" fill-opacity="0.5"/>
<path d="M64.4909 26.0535C64.5656 26.0535 64.6425 26.0694 64.7172 26.101C64.793 26.1327 64.8664 26.187 64.9343 26.2639L66.2036 27.7481C65.6481 28.5547 64.9524 29.1633 64.1153 29.5739C63.2782 29.9846 62.2895 30.1893 61.1458 30.1893C60.0983 30.1893 59.1593 29.9914 58.329 29.5943C57.4987 29.1984 56.795 28.6509 56.217 27.9529C55.6389 27.2549 55.1966 26.4268 54.8867 25.4698C54.5778 24.5116 54.4228 23.472 54.4228 22.3498C54.4228 21.2061 54.5993 20.1564 54.9534 19.1982C55.3074 18.24 55.8007 17.4142 56.4365 16.7196C57.0711 16.0251 57.829 15.4855 58.7137 15.0997C59.5972 14.714 60.5734 14.5205 61.6402 14.5205C62.1583 14.5205 62.6458 14.5714 63.104 14.6732C63.561 14.775 63.9886 14.9153 64.3868 15.094C64.785 15.2728 65.1516 15.4877 65.4864 15.7355C65.8212 15.9843 66.1176 16.2604 66.3767 16.5613L65.2963 18.171C65.2262 18.2694 65.1447 18.3588 65.0497 18.4391C64.9558 18.5194 64.8235 18.5602 64.6515 18.5602C64.5372 18.5602 64.4309 18.533 64.3302 18.4765C64.2284 18.4199 64.121 18.352 64.0079 18.2706C63.8947 18.1891 63.7703 18.1032 63.6345 18.0081C63.4988 17.9142 63.337 17.826 63.1515 17.7457C62.9648 17.6654 62.7476 17.5964 62.4976 17.5398C62.2476 17.4844 61.9558 17.4561 61.6221 17.4561C61.0406 17.4561 60.5112 17.5703 60.0315 17.7977C59.5507 18.0262 59.1401 18.352 58.7951 18.7762C58.4512 19.2005 58.1831 19.7152 57.9896 20.3181C57.7973 20.9211 57.7012 21.5987 57.7012 22.3487C57.7012 23.1349 57.7973 23.8329 57.9896 24.4426C58.1831 25.0535 58.4444 25.5671 58.7759 25.9845C59.1073 26.4019 59.4942 26.7198 59.9353 26.937C60.3777 27.1542 60.8517 27.2639 61.3562 27.2639C61.647 27.2639 61.9117 27.2481 62.1515 27.2164C62.3913 27.1848 62.6142 27.1305 62.8201 27.0535C63.0248 26.9766 63.2205 26.8759 63.4072 26.7538C63.5938 26.6316 63.7816 26.4789 63.9705 26.2956C64.0463 26.2255 64.1289 26.1678 64.2171 26.1225C64.3054 26.0773 64.3959 26.0535 64.4909 26.0535Z" fill="black" fill-opacity="0.5"/>
<path d="M81.7537 22.3485C81.7537 23.4572 81.5817 24.4889 81.2378 25.4425C80.8928 26.3961 80.4097 27.2265 79.7841 27.9312C79.1586 28.636 78.4051 29.188 77.525 29.5885C76.6449 29.989 75.6675 30.1881 74.594 30.1881C73.5204 30.1881 72.543 29.9878 71.6573 29.5885C70.7738 29.188 70.0181 28.636 69.3891 27.9312C68.7613 27.2253 68.2761 26.3961 67.931 25.4425C67.5871 24.4889 67.4151 23.4572 67.4151 22.3485C67.4151 21.2411 67.5871 20.2094 67.931 19.2557C68.2761 18.3021 68.7613 17.474 69.3891 16.7727C70.0181 16.0713 70.7738 15.5204 71.6573 15.121C72.5419 14.7206 73.5193 14.5215 74.594 14.5215C75.6687 14.5215 76.6449 14.7228 77.525 15.1267C78.4051 15.5306 79.1586 16.0826 79.7841 16.784C80.4097 17.4853 80.8928 18.3134 81.2378 19.267C81.5817 20.2195 81.7537 21.2478 81.7537 22.3485ZM78.4776 22.3485C78.4776 21.5917 78.3893 20.9096 78.2129 20.3021C78.0364 19.6958 77.7819 19.1811 77.4504 18.7602C77.1189 18.3394 76.7128 18.017 76.2332 17.793C75.7536 17.5679 75.2072 17.4559 74.5952 17.4559C73.9764 17.4559 73.4255 17.5679 72.9424 17.793C72.4594 18.017 72.0521 18.3394 71.7207 18.7602C71.3892 19.1811 71.1347 19.6958 70.9582 20.3021C70.7817 20.9096 70.6935 21.5917 70.6935 22.3485C70.6935 23.1133 70.7817 23.7988 70.9582 24.4063C71.1347 25.0126 71.3892 25.5273 71.7207 25.9482C72.0521 26.369 72.4594 26.6903 72.9424 26.9108C73.4255 27.1314 73.9764 27.2423 74.5952 27.2423C75.2072 27.2423 75.7536 27.1314 76.2332 26.9108C76.7128 26.6903 77.1189 26.369 77.4504 25.9482C77.7819 25.5273 78.0364 25.0126 78.2129 24.4063C78.3893 23.7988 78.4776 23.1144 78.4776 22.3485Z" fill="black" fill-opacity="0.5"/>
<path d="M91.6882 23.843C91.8059 24.1304 91.9167 24.4256 92.0242 24.7277C92.1328 24.4188 92.2448 24.1179 92.3658 23.8272C92.4857 23.5365 92.609 23.2537 92.7346 22.9788L96.2777 15.2252C96.341 15.0918 96.4043 14.9888 96.4711 14.9153C96.5378 14.8418 96.6114 14.7875 96.6939 14.7513C96.7754 14.7162 96.8682 14.6992 96.9734 14.6992C97.0774 14.6992 97.1985 14.6992 97.3377 14.6992H99.78V30.0196H96.9587V21.2016C96.9587 20.774 96.9779 20.3102 97.0152 19.8124L93.3601 27.6938C93.2459 27.9393 93.0944 28.1248 92.9009 28.2515C92.7086 28.3771 92.4902 28.4404 92.2436 28.4404H91.807C91.5604 28.4404 91.3421 28.3771 91.1486 28.2515C90.9563 28.1248 90.8036 27.9393 90.6904 27.6938L87.0162 19.8011C87.0399 20.0466 87.0592 20.2909 87.0727 20.5319C87.0852 20.774 87.092 20.9968 87.092 21.2005V30.0185H84.2695V14.6992H86.713C86.8521 14.6992 86.9732 14.6992 87.0773 14.6992C87.1825 14.6992 87.2753 14.7173 87.3567 14.7513C87.4382 14.7863 87.5139 14.8418 87.5795 14.9153C87.6451 14.9888 87.7096 15.0929 87.773 15.2252L91.3251 23.0093C91.4495 23.2774 91.5717 23.5546 91.6882 23.843Z" fill="black" fill-opacity="0.5"/>
<path d="M111.93 14.689V17.4243H106.267V21.0024H110.604V23.6326H106.267V27.2842H111.93V30.0196H103.046V14.689H111.93Z" fill="black" fill-opacity="0.5"/>
<path d="M127.215 22.3486C127.215 23.4572 127.044 24.4799 126.699 25.4154C126.355 26.3521 125.871 27.162 125.245 27.8464C124.621 28.5297 123.867 29.0637 122.987 29.446C122.107 29.8284 121.129 30.0196 120.056 30.0196H114.695V14.689H120.056C121.129 14.689 122.107 14.8813 122.987 15.267C123.867 15.6528 124.621 16.1867 125.245 16.8666C125.871 17.5476 126.355 18.3553 126.699 19.292C127.043 20.2287 127.215 21.2479 127.215 22.3486ZM123.938 22.3486C123.938 21.5918 123.849 20.9074 123.673 20.2977C123.496 19.6868 123.242 19.1698 122.91 18.7456C122.579 18.3214 122.174 17.9945 121.694 17.7671C121.214 17.5386 120.668 17.4254 120.056 17.4254H117.915V27.2853H120.056C120.668 27.2853 121.214 27.1711 121.694 26.9437C122.174 26.7152 122.579 26.3894 122.91 25.9652C123.242 25.541 123.496 25.0229 123.673 24.4131C123.849 23.8034 123.938 23.1145 123.938 22.3486Z" fill="black" fill-opacity="0.5"/>
<path d="M135.527 24.1903V30.0196H132.327V24.1903L127.326 14.689H130.148C130.425 14.689 130.646 14.7603 130.811 14.904C130.976 15.0476 131.109 15.232 131.209 15.456L133.161 19.9176C133.319 20.2751 133.464 20.6054 133.596 20.9063C133.729 21.2084 133.846 21.5059 133.948 21.8011C134.042 21.4991 134.156 21.1982 134.289 20.8962C134.421 20.5941 134.563 20.2683 134.715 19.9176L136.647 15.456C136.684 15.3644 136.737 15.2739 136.803 15.1823C136.87 15.0906 136.946 15.0092 137.031 14.9345C137.115 14.861 137.214 14.801 137.325 14.7558C137.436 14.7094 137.557 14.6868 137.689 14.6868H140.531L135.527 24.1903Z" fill="black" fill-opacity="0.5"/>
<path d="M14.9697 47.3741V16.4268L43.7213 31.8999L14.9697 47.3741Z" fill="black" fill-opacity="0.5"/>
<path d="M0.593826 39.6479V8.70166L29.3455 24.1748L0.593826 39.6479Z" fill="#332E2E"/>
<path d="M14.9697 31.8999V0.953613L43.7213 16.4267L14.9697 31.8999Z" stroke="black" stroke-opacity="0.5" stroke-width="1.0221" stroke-miterlimit="10"/>
</svg>
