<svg width="34" height="35" viewBox="0 0 34 35" fill="none" xmlns="http://www.w3.org/2000/svg">
<path fill-rule="evenodd" clip-rule="evenodd" d="M24.0834 11.6667C24.0834 10.8613 24.7176 10.2083 25.5 10.2083H26.9167C28.7953 10.2083 30.597 10.9766 31.9254 12.344C33.2537 13.7115 34 15.5661 34 17.5C34 19.4339 33.2537 21.2885 31.9254 22.656C30.597 24.0234 28.7953 24.7917 26.9167 24.7917H25.5C24.7176 24.7917 24.0834 24.1388 24.0834 23.3333C24.0834 22.5279 24.7176 21.875 25.5 21.875H26.9167C28.0439 21.875 29.1249 21.4141 29.9219 20.5936C30.7189 19.7731 31.1667 18.6603 31.1667 17.5C31.1667 16.3397 30.7189 15.2269 29.9219 14.4064C29.1249 13.5859 28.0439 13.125 26.9167 13.125H25.5C24.7176 13.125 24.0834 12.4721 24.0834 11.6667Z" fill="#10375C"/>
<path fill-rule="evenodd" clip-rule="evenodd" d="M1.41669 11.6667C1.41669 10.8613 2.05095 10.2083 2.83335 10.2083H25.5C26.2824 10.2083 26.9167 10.8613 26.9167 11.6667V24.7917C26.9167 26.7255 26.1704 28.5802 24.842 29.9477C23.5136 31.3151 21.712 32.0833 19.8334 32.0833H8.50002C6.6214 32.0833 4.81973 31.3151 3.49135 29.9477C2.16296 28.5802 1.41669 26.7255 1.41669 24.7917V11.6667ZM4.25002 13.125V24.7917C4.25002 25.952 4.69779 27.0648 5.49482 27.8853C6.29185 28.7057 7.37285 29.1667 8.50002 29.1667H19.8334C20.9605 29.1667 22.0415 28.7057 22.8386 27.8853C23.6356 27.0648 24.0834 25.952 24.0834 24.7917V13.125H4.25002Z" fill="#10375C"/>
<path fill-rule="evenodd" clip-rule="evenodd" d="M8.50002 0C9.28242 0 9.91669 0.652918 9.91669 1.45833V5.83333C9.91669 6.63875 9.28242 7.29167 8.50002 7.29167C7.71762 7.29167 7.08335 6.63875 7.08335 5.83333V1.45833C7.08335 0.652918 7.71762 0 8.50002 0Z" fill="#10375C"/>
<path fill-rule="evenodd" clip-rule="evenodd" d="M14.1667 0C14.9491 0 15.5834 0.652918 15.5834 1.45833V5.83333C15.5834 6.63875 14.9491 7.29167 14.1667 7.29167C13.3843 7.29167 12.75 6.63875 12.75 5.83333V1.45833C12.75 0.652918 13.3843 0 14.1667 0Z" fill="#10375C"/>
<path fill-rule="evenodd" clip-rule="evenodd" d="M19.8334 0C20.6158 0 21.25 0.652918 21.25 1.45833V5.83333C21.25 6.63875 20.6158 7.29167 19.8334 7.29167C19.0509 7.29167 18.4167 6.63875 18.4167 5.83333V1.45833C18.4167 0.652918 19.0509 0 19.8334 0Z" fill="#10375C"/>
</svg>
