<svg width="131" height="50" viewBox="0 0 131 50" fill="none" xmlns="http://www.w3.org/2000/svg">
<path d="M23.58 29.5903C23.58 30.0168 23.3674 30.0168 23.4375 30.3709C23.5088 30.6548 22.7282 32.7137 22.5868 32.9976C22.1603 34.1334 21.6637 35.2692 21.2383 36.4049C20.5992 37.6821 19.9601 38.819 19.3221 40.0249C19.0381 40.5215 15.7009 44.7806 15.3468 45.0646C14.4237 45.7037 12.8615 47.5488 12.0108 48.1167C11.4429 48.4708 9.31284 49.2524 8.81623 49.3237C7.89313 49.3938 6.8987 49.4662 6.04688 49.2536C4.55703 49.0398 2.35565 46.8395 1.64523 45.4198C1.29002 44.7806 0.864679 44.2128 0.652006 43.5035C0.368064 42.5804 0.154243 41.0894 0.0841064 40.0249C0.0841064 34.061 0.794564 33.2103 2.49821 27.4602C2.64075 26.9624 2.71085 26.5371 2.85338 26.0405C2.92465 25.5439 3.13734 25.0473 3.27988 24.6208C3.49255 23.8402 3.70636 23.0597 3.91903 22.3492C4.27424 20.7881 6.12043 18.0901 4.41678 17.7349C3.91904 17.6648 3.49367 17.7349 3.06832 17.3808C2.64184 17.0969 2.21656 16.8842 1.79008 16.6003C1.64868 16.4577 1.43599 16.3163 1.36359 15.9611C1.50613 15.8899 1.64749 15.8186 1.71876 15.8186C2.71199 15.6048 3.63508 15.3921 4.62944 15.1794C5.26859 15.0369 5.97789 14.9656 6.68831 14.8955C6.97112 14.8242 7.25621 14.6817 7.39762 14.3276C7.61142 13.7597 7.96549 13.2631 8.10803 12.624C8.81845 11.2755 9.31508 9.85468 10.0956 8.57751C10.8061 7.44174 11.5153 6.44738 12.4384 5.59555C12.5798 5.38288 12.7937 5.16907 12.9351 5.02767C13.219 4.81386 13.5029 4.67246 13.8581 4.74373C14.2846 4.88513 14.71 4.67246 15.2077 4.67246C15.2778 4.67246 15.2778 4.67246 15.3491 4.60232C16.3423 4.38852 16.6975 4.815 16.9815 5.59555C17.3367 6.30597 17.4781 7.01526 17.4781 7.86709C17.4781 8.29356 17.5482 8.64764 17.6206 9.00285C17.6908 9.28679 17.6908 9.64087 17.6206 9.99608C17.5494 10.3513 17.4781 10.7065 17.4069 11.1318C17.2655 11.6997 17.1229 12.2676 16.9815 12.8355C16.9815 13.0482 16.9815 13.1896 16.9102 13.4034C17.1229 13.5448 17.3367 13.5448 17.6206 13.5448C18.4725 13.4735 19.3956 13.4034 20.2474 13.331C21.4544 13.331 22.7327 13.331 23.9386 13.331C24.364 13.331 24.7905 13.4735 25.2871 13.5448C25.1457 13.7575 25.0744 13.8989 25.0043 13.9713C24.8629 14.1138 24.6491 14.2541 24.5065 14.3265C24.0099 14.5392 23.442 14.8231 22.9454 15.0369C22.9454 15.107 22.8741 15.107 22.8741 15.107C22.0935 15.1783 21.2417 15.5335 20.3899 15.4622C19.8933 15.4622 19.3967 15.5335 18.8989 15.676C18.615 15.8186 18.2598 15.8186 17.9759 15.8887C17.408 15.96 16.9114 16.0313 16.3435 16.1025C16.0596 16.1738 15.9181 16.3865 15.7756 16.6704C15.7043 16.7417 15.7043 16.8118 15.6342 16.8842C14.7824 19.2983 13.6466 21.5698 12.7235 23.9115C12.581 24.1954 12.4395 24.4794 12.3683 24.692C12.0131 25.4025 11.7291 26.0405 11.5165 26.8222C11.3038 27.4613 10.9486 28.1005 10.5934 28.6684C10.3106 29.165 10.3807 29.8041 10.0266 30.3007C9.24491 32.0757 8.32183 37.4706 8.46437 40.1686C8.53564 41.3043 8.81957 42.3688 9.17478 43.4333C9.31618 43.7885 9.60126 44.0012 9.81393 44.2852C9.8852 44.2852 9.95651 44.3553 10.0979 44.3553C10.7371 44.3553 12.0142 44.4266 12.6534 44.0012C13.0798 43.7173 15.2088 42.0136 15.6353 41.6584C16.6998 40.5939 19.1139 37.9672 19.8232 36.5475C20.4623 35.3404 20.8175 33.7782 21.4556 32.6435C21.7395 31.9331 22.4499 30.372 22.804 29.5915C23.1536 29.6605 23.6513 29.3765 23.58 29.5903ZM12.5764 19.0834C13.2869 17.3096 13.4995 15.8887 11.1567 17.3797C10.3762 19.7225 10.0923 21.3549 9.4531 23.5563C7.89199 29.4478 10.1635 25.0473 11.1567 22.4205C11.6533 21.0709 11.9373 20.3617 12.5764 19.0834ZM14.7778 10.9192C14.8491 10.6364 14.9192 10.28 14.9905 9.92595C15.0618 9.35806 15.2043 8.79018 15.2745 8.2223C15.3457 7.58314 15.2745 6.94399 15.2043 6.30484C15.133 6.0209 14.9204 5.94963 14.7778 6.09217C14.4939 6.30484 14.2812 6.44738 14.1387 6.80146C13.8547 7.36934 13.5708 8.00849 13.4283 8.64651C13.3581 8.86032 13.2156 9.07299 13.1443 9.28566C13.0029 9.5696 12.8604 9.85242 12.7178 10.2088C12.5753 10.918 12.4339 11.6997 12.2212 12.4803C11.9373 14.3253 13.9249 14.3966 14.3513 13.1183C14.4927 12.4102 14.6353 11.7009 14.7778 10.9192Z" fill="black" fill-opacity="0.5"/>
<path d="M27.9806 32.0744C28.2646 31.0099 30.7487 25.9702 31.2465 25.1173C31.673 24.4781 32.0983 23.8401 32.4535 23.1297C32.88 22.5618 33.3054 21.9226 33.5893 21.3548C33.8733 20.8581 34.2997 20.5742 34.7251 20.5029C35.2217 20.5029 35.6482 20.4317 36.0736 20.4317C36.9254 20.4317 37.4231 21.0708 37.8474 21.9939C37.8474 22.0652 37.8474 22.1353 37.8474 22.2767C37.9888 23.1998 38.2025 24.193 38.345 25.1874C38.4876 26.1105 38.4163 27.1037 38.4163 28.0268C38.4163 28.666 38.4876 29.3051 38.4163 29.9443C38.7704 30.1569 38.7002 30.4409 38.7704 30.3707C38.9129 30.2282 39.4096 30.4409 39.5521 30.2995C39.6222 30.1581 39.7648 30.0868 39.8349 29.9454C40.1189 29.7327 40.4027 29.5189 40.6867 29.1648C40.8993 28.8108 41.1132 28.8108 41.3971 29.1648C41.3971 29.3775 41.3259 29.5913 41.1132 29.7327C41.0419 29.804 40.9719 29.9454 40.8995 30.0879C40.8293 30.3006 40.6867 30.5144 40.474 30.5846C40.4027 30.6558 40.3315 30.726 40.2602 30.7984C40.189 30.8696 40.0476 30.9409 40.0476 31.011C39.9763 31.0823 39.9062 31.0823 39.8338 31.1536C39.551 31.4375 39.3371 31.5088 39.0532 31.5088C38.983 31.5088 38.698 31.58 38.4141 31.7927C38.2014 31.9353 37.9875 31.9353 37.8461 31.7927C37.3495 31.5088 36.8529 31.4386 36.3552 31.2248C35.5033 31.0122 34.8654 30.2316 34.509 29.2372C34.0837 27.9601 34.0837 26.5404 34.2964 25.1919C34.4389 24.5528 34.4389 23.9849 34.509 23.417C34.5803 22.9905 34.6504 22.5652 34.7228 22.1387C34.8643 21.8559 34.8642 21.6421 34.7929 21.3581C34.7228 21.3581 34.5803 21.288 34.5803 21.4294C34.509 21.5007 34.3665 21.6421 34.2964 21.7835C34.0124 22.3514 33.6572 22.9193 33.302 23.5584C33.0893 23.9125 32.9479 24.339 32.8766 24.8356C32.9468 25.1195 32.7341 25.3333 32.6628 25.546C32.0237 26.753 31.4558 27.8877 31.0304 29.2372C30.6752 30.2316 30.1786 31.0834 29.7533 32.0767C29.1141 33.5676 28.3336 34.9161 27.8358 36.4783C27.6944 36.9749 27.4094 37.5428 27.1967 38.1118C27.0553 38.5383 25.2792 41.9445 24.855 42.3008C24.855 42.4422 24.6412 42.5135 24.4998 42.656C23.6479 43.8631 22.6536 43.7918 21.5189 43.5079C21.3775 43.6504 21.235 43.5079 21.0925 43.3665C19.9567 43.0825 19.3877 42.018 19.1049 40.5972C18.8911 39.3901 18.8911 38.113 18.8911 36.9059C18.9623 35.0609 19.0325 33.2147 19.175 31.3685C19.5302 29.3108 19.2463 29.4522 19.8142 27.5359C20.3119 24.7677 20.028 25.1931 21.0212 22.4249C21.0925 21.9283 21.3764 21.5731 21.5189 21.0765C22.0155 19.7993 22.442 18.6635 23.0088 17.5278C23.2927 16.6047 23.5767 16.4633 24.2871 16.6047C24.7837 16.6047 25.4229 16.7472 26.0621 16.8886C26.4874 16.9587 26.9139 17.1013 27.4818 17.5979C27.9784 18.521 28.6887 19.1601 29.3992 20.012C30.0383 21.1477 30.1797 22.0007 29.7544 23.348C29.3992 24.7677 29.2578 23.7032 28.9026 25.1942C27.9795 28.175 26.2758 30.5178 25.4953 33.2158C24.4308 36.6175 27.6967 33.2803 27.9806 32.0744Z" fill="black" fill-opacity="0.5"/>
<path d="M67.237 30.0157C67.1657 30.5123 66.4564 32.216 66.1012 32.4999C65.8885 32.5712 65.8173 32.7839 65.6747 32.8551C65.3919 33.2103 65.1781 33.4943 64.8941 33.7782C64.7516 33.9208 64.5389 34.0622 64.4688 34.276C64.255 34.7013 63.971 34.9151 63.6169 35.1278C63.4744 35.1991 63.333 35.2703 63.2628 35.4117C62.8364 35.9083 62.2685 36.3348 61.8431 36.7602C61.4167 37.1154 60.9913 37.3281 60.4947 37.4706C59.8555 37.6131 59.2876 37.6131 58.7209 37.8258C58.2231 38.0396 57.6553 38.0396 57.0885 38.1799C56.8747 38.1799 56.6621 38.1799 56.4494 38.1799C55.5976 37.8971 54.7446 37.7545 54.0353 37.1867C53.9641 37.1154 53.8216 37.0441 53.6802 36.9728C53.041 36.69 52.403 36.3337 51.9765 35.7658C51.4086 36.0498 50.912 36.3337 50.4856 36.6889C50.2016 36.8314 49.9889 36.9717 49.7049 37.1855C49.6348 37.1855 49.5624 37.2557 49.5624 37.2557C49.1359 37.8235 48.568 37.8948 48.0013 38.1075C47.0069 38.3914 46.0137 38.3914 45.0906 37.8948C44.7354 37.681 44.3802 37.5396 44.025 37.3971C41.9672 36.5452 40.8304 34.983 40.6177 32.7827C40.4752 31.647 40.6878 30.5813 41.1855 29.5881C41.6822 28.665 42.1787 27.7419 42.8892 26.9614C42.8892 26.8912 42.9604 26.8199 43.0317 26.7487C43.9548 25.329 45.0907 23.9805 46.1552 22.7022C46.9357 21.8504 47.7874 21.1411 48.8519 20.502C48.9933 20.4307 49.2785 20.3594 49.4912 20.3594C49.9165 20.2882 50.343 20.218 50.8396 20.218C50.9109 20.218 50.981 20.218 51.0523 20.218C51.4788 20.4307 52.0455 20.4307 52.5432 20.5732C52.6847 20.6445 52.8271 20.7146 52.9697 20.7146C53.3238 20.7859 53.6089 20.7859 53.7503 21.0687C53.8216 21.14 53.8928 21.14 53.8928 21.14C54.248 21.14 54.5319 21.4952 54.886 21.4952C55.0285 21.4952 55.17 21.5665 55.2413 21.6366C55.6666 22.0631 56.1644 22.4172 56.4483 22.9149C56.5185 23.1276 56.5897 23.269 56.661 23.4828C56.8024 24.1219 56.6609 24.5473 56.0218 24.9025C55.3826 25.1864 54.8148 25.6118 54.2469 26.0383C54.2469 26.0383 54.2469 26.0383 54.2469 26.1095C53.4663 26.8901 52.5432 27.6005 51.904 28.5236C51.6201 28.8788 51.3362 29.1627 51.0523 29.4467C50.4131 30.156 49.9165 30.9377 49.3487 31.7182C49.1348 32.0734 48.8508 32.4275 48.6382 32.7115C48.4968 32.8529 48.4255 32.9954 48.3543 33.1379C47.9278 33.9185 47.6438 34.699 47.5024 35.4807C47.4311 35.5509 47.5024 35.6221 47.5024 35.7635C47.6449 35.6934 47.7162 35.6221 47.7863 35.5509C48.4967 34.8405 49.2773 34.1312 50.1291 33.4931C50.5556 33.1379 50.9097 32.7827 51.1937 32.2861C51.3351 32.0723 51.5477 31.8596 51.7615 31.647C52.1869 31.1503 52.6134 30.6537 52.9686 30.0858C53.4652 29.3053 53.9618 28.5247 54.4584 27.6718C55.0976 27.6016 55.5942 27.6718 56.0207 28.1684C56.1632 28.3098 56.3045 28.4523 56.4471 28.5949C56.9437 29.234 57.0139 29.9433 57.0863 30.6537C57.0863 30.7951 57.015 30.8664 56.9449 31.0078C56.661 31.647 56.3057 32.3562 55.9505 32.9954C55.7378 33.4931 55.6666 33.9898 55.7378 34.4864C55.8793 35.0543 56.092 35.6934 56.3771 36.2613C56.5185 36.474 56.7311 36.6165 57.0162 36.6165C57.5139 36.5452 58.0105 36.474 58.5071 36.2613C58.9336 36.0475 59.4302 35.8348 59.8556 35.5509C60.3522 35.2669 60.85 34.983 61.4167 34.6278C61.7719 34.2726 62.1973 33.9886 62.5525 33.6334C63.4756 32.7103 64.8953 30.3687 65.8173 29.4456C65.8885 29.3743 65.9586 29.3743 66.031 29.303C66.5265 29.3766 66.8818 29.6605 67.237 30.0157Z" fill="black" fill-opacity="0.5"/>
<path d="M89.2419 30.7251C89.0292 31.009 88.9578 32.0735 88.8877 32.4287C88.8164 32.6425 88.3912 32.8552 88.2486 32.9966C88.1072 33.4231 85.7633 33.991 85.5506 33.991C84.8402 34.4175 82.9951 33.1392 82.7813 33.0679C82.7813 33.0679 81.788 32.3575 81.7168 32.2873C81.6466 32.1459 80.5097 31.1516 80.3683 31.009C79.7292 29.802 79.374 29.4479 78.7359 28.311C78.0979 29.1628 78.2383 29.2341 77.6715 30.3699C77.1037 31.4344 76.6771 32.5701 75.9667 33.7059C75.754 33.8484 75.6839 34.0611 75.5413 34.2025C75.3275 34.9129 74.9022 35.4808 74.3343 36.0476C73.9078 36.6155 73.624 37.1833 73.34 37.8938C73.34 37.9639 73.2699 38.1766 73.2699 38.2478C73.34 38.7445 73.056 39.0997 72.8433 39.525C72.4168 40.0228 72.0629 40.5194 71.7789 41.1574C71.3524 42.1518 70.927 42.9323 69.9337 43.5715C69.7199 43.8554 69.4361 43.9979 69.082 43.9979C68.8693 43.9979 68.5853 43.9979 68.3014 43.9267C67.9462 43.9267 67.5208 43.9979 67.0231 44.0681C66.0298 44.4946 65.0356 44.2106 64.6091 43.2163C64.3964 42.7185 62.1961 41.2287 61.8409 40.8735C61.3443 40.3768 60.5637 38.7445 60.7051 38.1053C60.7051 37.5374 60.8476 37.0408 60.9178 36.5442C61.2017 35.4797 61.3443 34.2014 61.6283 33.0656C61.8409 32.2138 61.9834 31.3608 62.1961 30.4389C62.6927 28.4513 63.0479 26.535 63.5445 24.6888C63.8998 23.553 64.1125 22.5586 64.3263 21.424C64.3964 20.7849 64.3964 20.0756 64.6091 19.4364C64.6804 18.726 64.6091 19.0099 64.6803 18.4421C64.7505 18.2294 64.7505 18.0868 64.893 17.8742C65.1068 17.7316 65.3907 17.804 65.6033 18.0167C65.6746 18.1581 65.8874 18.3719 65.9587 18.4432C66.2426 18.7973 66.1011 18.8697 66.5977 18.8697C66.7403 18.8697 67.0231 19.0823 67.0231 19.1536C67.3783 19.7928 67.9462 20.1468 68.4428 20.5733C68.7267 21.1412 69.2234 21.4964 69.2947 22.2057C69.0118 22.2057 68.8694 22.2057 68.5854 22.1344C68.444 22.5609 68.3014 22.8449 68.514 23.3415C68.8692 24.0519 68.8693 24.8324 68.9406 25.6843C68.9406 26.0395 69.0118 26.3947 69.0118 26.6074C69.2947 27.4592 69.2947 28.3823 69.2947 29.2341C69.2947 29.4479 69.2947 29.5893 69.2947 29.802C69.3659 30.5124 69.3659 31.2217 69.3659 31.9321C69.2946 32.5 69.3659 33.0679 69.4372 33.5645C69.4372 34.0611 69.4372 34.0611 69.2245 34.5589L69.0118 34.4876C68.9406 34.1335 68.9406 33.8484 68.8704 33.5645C68.8704 33.4944 68.7279 33.4231 68.6567 33.3518C68.5854 33.3518 68.5153 33.2093 68.444 33.3518C68.3727 33.3518 68.3026 33.4944 68.3026 33.5645C68.3026 34.3451 68.3025 35.0555 68.3726 35.7648C68.4439 36.12 68.5153 36.5465 68.444 36.9005C68.3727 37.1845 68.444 37.3972 68.5854 37.5397C68.6567 37.5397 68.8693 37.611 68.9406 37.5397C69.0119 37.5397 69.0831 37.3972 69.0118 37.2557C68.9406 36.9005 69.0831 36.4039 69.2245 35.9073C69.2245 35.9073 69.2946 35.8372 69.3659 35.7648C69.3659 35.836 69.4372 35.9073 69.4372 36.0487C69.5786 36.4752 69.5786 36.8304 69.5786 37.1845C69.6498 37.3971 69.6498 37.4684 69.72 37.611C69.72 37.7535 69.7912 37.8236 69.7912 37.8236C69.436 38.3202 69.8614 38.4628 69.9326 38.818C70.074 38.7467 70.2166 38.6042 70.2867 38.534C71.3512 37.2557 72.4168 36.0487 73.3388 34.5589C73.6929 34.0611 74.0493 33.5645 74.4033 33.0679C74.9 32.4287 75.2552 31.7194 75.5391 30.9389C75.6817 30.4411 75.9644 29.8031 76.2484 29.3766C77.0289 27.5305 77.1715 28.7375 77.6681 27.1051C77.7382 26.8924 77.3129 25.2589 77.2417 24.9761C77.2417 23.6277 76.8875 23.6989 77.7382 23.4851C78.0222 23.4851 79.3004 23.7691 79.5131 23.9116C79.9396 24.1254 79.5833 24.1956 80.0811 24.1956C80.365 24.1254 80.5777 24.2668 80.7903 24.3381C80.9317 24.4094 81.0041 24.4806 81.0742 24.6933C81.0742 24.8358 81.1455 24.9071 81.2156 25.1198C81.6421 27.8879 81.9261 28.4558 82.7066 30.302C83.3458 30.7997 84.1263 32.7161 85.546 32.431C86.2553 32.2183 86.6105 31.9344 87.3198 31.7918C87.959 31.6504 88.4557 30.8688 89.0948 30.5147C89.1661 30.4434 89.2362 30.4434 89.3086 30.4434C89.3833 30.5837 89.3132 30.6549 89.2419 30.7251ZM68.3704 30.2285L68.4417 30.371C68.4417 30.4411 68.5129 30.371 68.5129 30.371C68.5842 30.1572 68.5842 30.0169 68.6543 29.8744C68.6543 29.7319 68.6543 29.6606 68.6543 29.5192C68.5831 29.449 68.5129 29.3778 68.4417 29.449C68.4417 29.5192 68.3704 29.6617 68.4417 29.6617C68.5129 29.733 68.5831 29.8031 68.6543 29.8755C68.5842 30.0158 68.513 30.1572 68.3704 30.2285ZM68.5129 30.8676C68.5129 30.7964 68.4417 30.7964 68.4417 30.7964C68.3704 30.7964 68.3704 30.8676 68.3704 30.8676C68.3704 31.009 68.4417 31.009 68.4417 31.0814C68.5129 31.009 68.5129 30.8676 68.5129 30.8676ZM68.5842 31.5056C68.5842 31.5769 68.5842 31.5769 68.5842 31.5769C68.5842 31.5769 68.5842 31.5769 68.6554 31.5769C68.6543 31.5056 68.6543 31.5056 68.5842 31.5056ZM69.0096 38.534C68.9384 38.6766 68.8682 38.6766 68.8682 38.7467C68.8682 38.7467 68.8681 38.818 68.9382 38.818C68.9382 38.818 69.0096 38.7467 69.0809 38.7467C69.0096 38.6766 69.0096 38.6766 69.0096 38.534ZM69.0809 37.896C69.2234 37.8248 69.2234 37.6822 69.0809 37.6121C69.0096 37.6121 69.0096 37.6121 69.0096 37.6121C69.0096 37.6834 68.9382 37.7546 68.9382 37.896C68.9382 37.896 69.0096 37.896 69.0096 38.0374L69.0809 37.896Z" fill="black" fill-opacity="0.5"/>
<path d="M91.7961 29.8019C91.7961 29.9444 91.6536 30.0858 91.5122 30.1571C91.441 30.2284 91.2985 30.2985 91.2985 30.5123C91.2272 30.7962 91.1558 30.8675 90.9432 30.9388C90.8006 31.0089 90.8006 31.0813 90.7305 31.5067C90.8719 31.5067 90.9432 31.5067 91.0133 31.5779C91.0133 31.5779 91.0133 31.5779 91.0133 31.6492C90.8719 31.6492 90.7305 31.6492 90.5167 31.6492C90.588 31.4365 90.588 31.2227 90.588 31.0825C90.5167 31.0825 90.4455 31.0825 90.4455 31.0825C90.3742 31.5791 90.3041 32.0757 90.2317 32.5723C90.3742 32.6436 90.4455 32.7148 90.5156 32.7148C90.5869 33.2126 90.5869 33.6379 90.5869 34.1345C90.5869 34.6312 90.7294 35.0576 90.8697 35.4117C91.0835 35.6957 91.6514 37.2579 91.8641 37.5418C92.8584 38.5362 94.0655 39.8134 95.2001 39.8846C95.5542 39.9548 97.6142 39.6007 97.9683 39.5294C99.6719 39.0328 101.304 38.1097 102.866 36.9027C104.074 35.9796 105.208 34.9151 106.415 33.9207C106.486 33.8506 106.557 33.7782 106.629 33.7081C107.054 33.2115 107.481 32.785 107.906 32.2884C108.687 31.5067 109.397 30.7261 110.036 29.803C110.249 29.4489 110.463 29.0926 110.888 28.9512C110.746 29.5903 110.604 30.1571 110.32 30.725C110.249 30.9388 110.108 31.1515 109.966 31.2929C109.54 31.7895 109.184 32.216 108.902 32.7838C108.688 33.0678 108.404 33.3517 108.191 33.6357C108.12 33.7069 108.049 33.8495 107.907 34.0621C108.12 33.992 108.263 33.9196 108.475 33.8495C108.404 34.2759 108.049 34.3461 107.977 34.7013C108.049 34.7726 108.049 34.8427 108.191 34.9151C107.977 35.2703 107.765 35.483 107.481 35.7669C107.054 36.1221 106.629 36.5486 106.274 36.974C105.635 37.6844 104.925 38.2523 104.216 38.8201C103.861 39.1041 103.577 39.3869 103.222 39.6007C102.938 39.8134 102.654 39.9559 102.37 40.1686C101.945 40.3813 101.518 40.5939 101.093 40.8779C100.382 41.3044 99.6017 41.6584 98.8211 41.801C98.6084 41.8722 98.3947 41.9435 98.182 42.0148C97.3302 42.2987 96.4783 42.4413 95.6265 42.5114C94.6322 42.6539 90.4443 41.8722 89.5223 41.517C87.037 40.5238 86.5404 39.3168 85.4046 38.3224C84.9793 37.9683 84.6241 37.3993 84.4114 36.8326C84.0562 35.9095 83.9849 34.9151 83.9147 33.8506C83.9147 31.6492 84.4826 29.5202 85.4046 27.5326C85.6184 27.1061 85.6184 27.1061 85.546 26.4681C85.1908 26.6808 84.9782 26.8222 84.8368 27.2487C84.623 27.8878 84.339 28.4557 83.9849 29.0949C83.9849 28.4557 84.2689 28.0304 84.4816 27.5337C85.0495 26.2566 85.6886 25.0495 86.4691 23.9138C87.2508 22.7067 88.1015 21.6422 89.0959 20.649C90.0891 19.5845 91.1536 18.6614 92.2905 17.951C92.5745 17.8085 92.7872 17.7372 93.001 17.5958C93.3562 17.4544 93.7102 17.3831 93.924 17.7372C94.1367 17.951 94.4207 17.8797 94.5632 18.0211C94.7759 18.1625 94.8471 18.4476 94.9896 18.589C95.6989 18.9431 98.397 19.6535 99.035 20.08C99.2488 20.2214 99.3902 20.5065 99.5327 20.7904C99.8868 21.4296 100.172 22.1389 100.668 22.5642C100.81 22.7067 100.882 22.9907 100.952 23.2034C101.094 24.0552 101.165 24.8357 100.952 25.7588C100.81 26.7532 100.384 27.6752 99.8879 28.5281C99.6039 29.0247 99.32 29.4512 99.1074 30.0191C98.966 30.5157 98.6808 30.9422 98.3969 31.4388C98.113 32.0067 97.6164 32.3619 97.1198 32.5033C96.6934 32.716 96.1967 32.7872 95.7714 32.716C95.5576 32.6447 95.3448 32.716 95.2034 32.432C95.2034 32.3619 95.1333 32.3619 95.1333 32.3619C94.5654 32.432 94.2103 31.794 93.7849 31.5813C93.7137 31.5101 93.6423 31.2974 93.6423 31.2261C93.7848 30.9433 93.6423 30.8008 93.571 30.587C93.2871 30.0202 93.0044 29.3799 92.648 28.8132C92.5779 28.5994 92.364 28.5292 92.1513 28.7419C92.0789 29.0926 91.7961 29.3765 91.7961 29.8019ZM85.0516 36.1911C85.1229 36.4049 85.193 36.5464 85.2643 36.759C85.2643 36.9717 85.4782 37.1142 85.3357 37.3982C85.2644 37.328 85.193 37.328 85.193 37.2568C84.8378 36.5475 84.6965 35.6244 84.554 34.7013C84.4827 34.6312 84.554 34.5599 84.554 34.4886C84.554 33.4241 84.5539 32.4298 84.8379 31.3653C84.9091 31.1526 84.9804 30.9399 84.9804 30.7261C84.9804 30.5847 84.9804 30.5134 84.9804 30.2295C84.7666 30.656 84.6252 30.9399 84.554 31.2227C84.4827 31.5779 84.4126 31.8619 84.3402 32.2171C84.0574 34.0633 84.1275 35.7658 84.908 37.2568C85.0506 37.5407 85.2632 37.7545 85.4759 38.0385C85.6184 38.1799 85.7599 38.2511 85.9726 38.3213C85.9726 38.3925 86.0438 38.3213 86.1863 38.3213C85.9725 37.9672 85.7599 37.6821 85.6185 37.328C85.4047 36.9016 85.4046 36.4762 85.1919 36.121C85.1229 36.121 85.0516 36.1911 85.0516 36.1911ZM85.0516 31.6481C84.6964 32.7838 84.7677 33.8495 84.9091 34.914C84.9091 34.9841 84.9804 34.9841 85.0516 35.0554C85.1229 34.2748 85.193 33.5644 85.2643 32.854C85.3356 32.3574 85.4068 31.8607 85.193 31.4343C85.1229 31.5055 85.0516 31.5768 85.0516 31.6481ZM90.0925 33.423C90.0925 33.4943 90.0925 33.4943 90.0925 33.5644C90.0925 33.4943 90.0925 33.4943 90.0925 33.423ZM93.9963 25.9692C93.8549 26.1819 93.6412 26.4659 93.4998 26.7498C93.2158 27.2464 93.286 27.6016 93.6412 27.8143C93.8539 27.9568 94.1379 28.0982 94.2804 28.3109C94.7069 28.8087 95.2748 28.7374 95.8415 28.6661C96.3393 28.5236 96.6934 28.027 96.9784 27.5304C97.475 26.3233 97.7589 26.1106 98.1853 24.9036C99.3211 22.2056 97.0497 22.8447 95.984 23.6966C95.2035 24.2656 94.6355 25.1887 93.9963 25.9692Z" fill="black" fill-opacity="0.5"/>
<path d="M129.278 32.9965C128.924 33.707 127.717 35.2681 127.717 36.0486C127.645 36.1199 127.433 36.3326 127.29 36.4038C127.077 36.6165 126.864 36.9005 126.722 37.2557C126.581 37.6109 126.368 37.7534 126.226 38.0373C125.232 39.8111 124.593 40.8055 122.961 42.3666C122.534 42.7218 118.772 46.3418 118.488 46.697C116.429 48.4007 113.661 47.6201 111.602 47.6902C111.034 47.6902 110.466 47.6201 110.111 47.4063C109.472 47.0522 108.052 46.4832 107.626 45.8452C106.987 44.2841 105.354 43.2184 105.212 41.0182C105.141 40.4503 104.858 40.0951 104.786 39.5272C104.856 37.2557 105.212 34.9841 105.495 32.6413C105.922 31.0078 106.276 29.2329 106.56 27.6016C107.27 24.5484 107.483 24.1932 108.831 21.4251C109.542 19.5789 110.18 19.4375 110.89 17.5913C111.387 16.598 111.955 15.6037 112.523 14.7519C112.948 13.6874 113.659 12.693 114.297 11.6285C115.645 9.28683 117.136 7.22684 118.698 5.52319C119.763 4.45869 120.9 3.32179 121.964 2.39983C122.603 1.90321 123.241 1.33533 123.882 1.12266C124.094 0.98012 124.307 0.908852 124.521 0.838715C125.514 0.767447 126.438 0.909983 127.147 1.61927C127.858 2.25842 128.071 3.25279 127.858 4.60123C127.717 5.45305 127.645 6.30488 127.431 7.08543C127.361 7.72459 127.076 8.29247 126.721 9.00289C126.224 10.2099 125.657 11.3446 124.876 12.4815C124.379 13.4046 123.812 14.3265 123.315 15.2496C122.463 16.5268 121.754 17.8764 120.901 19.0834C119.41 21.071 118.133 23.2011 116.783 25.1887C114.582 28.9512 114.795 29.5904 114.015 33.3529C113.731 34.8427 113.874 35.6957 113.801 37.1867C113.872 37.6131 114.085 40.3813 114.156 40.6652C114.37 41.6585 114.583 42.0137 115.008 42.9368C115.15 43.2207 116.144 43.4334 116.499 43.5759C116.996 43.9311 120.758 41.3756 121.255 41.0204C122.391 40.3813 123.314 39.3168 124.307 38.3224C125.371 37.3292 125.869 36.1923 126.792 34.8438C128.069 33.1402 128.496 31.7205 129.844 29.8754C130.84 29.7318 130.272 31.2216 129.278 32.9965ZM117.92 20.2192C120.191 16.5992 120.547 16.0302 122.606 12.1262C123.386 10.6364 124.025 9.14543 124.807 7.65445C125.161 6.58995 125.374 5.52432 125.516 4.45982C125.658 4.10461 125.658 3.89194 125.304 4.03334C124.948 4.10348 124.736 4.24602 124.523 4.38855C123.6 4.74376 122.748 5.45305 122.109 6.44741C121.612 7.0153 121.257 7.65445 120.689 8.22233C120.05 9.00289 119.695 9.78345 119.411 10.7065C119.057 11.417 118.7 12.2677 118.346 12.9781C117.85 14.469 117.139 15.96 116.429 17.451C116.146 18.1603 115.932 18.9408 115.648 19.6513C114.797 22.0653 115.152 20.8583 114.371 23.2712C114.157 23.8391 114.3 25.4726 115.223 24.4783C116.286 22.9172 116.997 21.8527 117.92 20.2192Z" fill="black" fill-opacity="0.5"/>
</svg>
