<svg width="138" height="55" viewBox="0 0 138 55" fill="none" xmlns="http://www.w3.org/2000/svg">
<path d="M40.3177 37.7268L0.293182 20.5715V0.559814L40.3177 17.714V37.7268Z" fill="black" fill-opacity="0.5"/>
<path d="M40.7272 17.4778L0.702667 34.6319V54.6447L40.7272 37.4895V17.4778Z" fill="black" fill-opacity="0.5"/>
<path d="M40.6186 37.4429L17.4971 27.5332C17.453 27.514 17.453 27.4518 17.4971 27.4337L40.6186 17.524C40.6695 17.5025 40.726 17.5398 40.726 17.5953V37.3728C40.7272 37.4282 40.6706 37.4655 40.6186 37.4429Z" fill="#332E2E"/>
<path d="M65.4663 18.9735V20.3378C65.4663 20.7304 65.3 20.9623 64.9459 21.0539C64.9244 21.0539 64.8837 21.0777 64.8215 21.0777C64.7592 21.0777 64.6552 21.124 64.5104 21.1467C64.3644 21.1704 64.1563 21.2168 63.9074 21.2632V35.6854H62.4515C62.223 35.6854 62.0556 35.639 61.9096 35.57C61.7637 35.4999 61.6189 35.3618 61.473 35.1537L53.6108 24.0359C53.6323 24.2904 53.6516 24.5212 53.6516 24.7519C53.6516 24.9827 53.6731 25.2146 53.6731 25.4216V33.3957C54.5464 33.5349 54.983 33.6039 55.0249 33.6039C55.379 33.6967 55.5453 33.9274 55.5453 34.32V35.6842H53.6731H51.2183H49.6391V34.32C49.6391 33.9274 49.8042 33.6955 50.1583 33.6039C50.1798 33.6039 50.2217 33.6039 50.2827 33.5801C50.3461 33.5564 50.449 33.5338 50.595 33.5111C50.7398 33.4874 50.9694 33.441 51.2183 33.3946V21.262C50.9694 21.2157 50.7398 21.1693 50.595 21.1455C50.449 21.1218 50.345 21.0765 50.2827 21.0765C50.2205 21.0765 50.1787 21.0528 50.1583 21.0528C49.8042 20.96 49.6391 20.7292 49.6391 20.3367V18.9724H51.2183H52.6742C52.7986 18.9724 52.9038 18.9962 52.9864 18.9962C53.069 18.9962 53.1527 19.0199 53.2149 19.0652C53.2772 19.0889 53.3393 19.1353 53.4016 19.2043C53.4649 19.2745 53.526 19.3661 53.6108 19.4826L61.5137 30.6457C61.4934 30.3685 61.473 30.114 61.4515 29.8595C61.43 29.605 61.43 29.3516 61.43 29.1197V21.262C60.5567 21.1229 60.12 21.0539 60.0782 21.0539C59.7241 20.9611 59.5589 20.7304 59.5589 20.3378V18.9735H61.43H63.9052H65.4663Z" fill="black" fill-opacity="0.5"/>
<path d="M79.2448 18.9733V20.591V21.4462V23.3648H79.1407H78.8907H78.0378C77.7674 23.3648 77.6226 23.203 77.5592 22.9259C77.5378 22.7415 77.4767 22.2562 77.4133 21.4462H72.5671V26.0684H77.6633V28.4723H72.5671V33.1874H77.4133C77.4767 32.3785 77.5378 31.8932 77.5592 31.7077C77.6226 31.4305 77.7674 31.2688 78.0378 31.2688H78.8907H79.1407H79.2448V33.1874V34.0652V35.6829H69.7593H68.1801V34.3186C68.1801 33.9261 68.3453 33.6942 68.6994 33.6025C68.7208 33.6025 68.7627 33.5788 68.8238 33.5788C68.8871 33.5788 68.9901 33.5324 69.136 33.5098C69.2808 33.486 69.5105 33.4396 69.7593 33.3932V21.2618C69.5105 21.2154 69.2808 21.169 69.136 21.1453C68.9901 21.1215 68.886 21.0763 68.8238 21.0763C68.7616 21.0763 68.7197 21.0525 68.6994 21.0525C68.3453 20.9598 68.1801 20.729 68.1801 20.3364V18.9722H69.7593H79.2448V18.9733Z" fill="black" fill-opacity="0.5"/>
<path d="M104.9 18.9731V20.3374C104.9 20.73 104.734 20.9619 104.38 21.0535C104.358 21.0535 104.297 21.0773 104.151 21.0999C104.005 21.1225 103.819 21.1689 103.569 21.2153L99.5121 35.6839H96.9951L93.7089 24.2662C93.6681 24.1271 93.6263 23.9653 93.5844 23.8035C93.5437 23.6418 93.4803 23.4336 93.4396 23.2492C93.3978 23.4348 93.3559 23.6418 93.3152 23.8035C93.2733 23.9891 93.2315 24.1271 93.1907 24.2662L89.8626 35.6839H87.3456L83.3105 21.2153C83.0605 21.1689 82.8534 21.1225 82.7075 21.0999C82.5616 21.0761 82.4994 21.0535 82.479 21.0535C82.1249 20.9607 81.9586 20.73 81.9586 20.3374V18.9731H82.6871H83.5401H85.0175H87.5764V20.3374C87.5764 20.73 87.4101 20.9619 87.056 21.0535C87.0345 21.0535 86.9938 21.0535 86.952 21.0773C86.9112 21.101 86.8275 21.1236 86.7234 21.1463C86.6193 21.1689 86.4949 21.1926 86.3693 21.239L88.5119 29.6758C88.5753 29.9304 88.6364 30.2075 88.6997 30.4847C88.7404 30.7618 88.8038 31.0854 88.8456 31.4089C88.9078 31.0854 88.9701 30.7618 89.0323 30.4847C89.0945 30.1838 89.1567 29.9304 89.2404 29.6758L92.1941 19.6904C92.2563 19.5048 92.3593 19.3431 92.5267 19.205C92.6941 19.067 92.8808 18.9743 93.1093 18.9743H93.9407C94.1907 18.9743 94.3786 19.0207 94.5437 19.1598C94.71 19.2989 94.8141 19.4833 94.8774 19.6915L97.8096 29.677C97.9555 30.1623 98.1015 30.7166 98.2055 31.3184C98.2474 31.0175 98.2881 30.7403 98.3515 30.4632C98.3933 30.186 98.4555 29.9089 98.5178 29.6781L100.66 21.265C100.452 21.2187 100.161 21.1485 99.8074 21.0569C99.4533 20.9653 99.287 20.7334 99.287 20.3408V18.9765H101.992H103.323H104.197H104.9V18.9731Z" fill="black" fill-opacity="0.5"/>
<path d="M116.968 30.4598C116.968 31.2222 116.844 31.893 116.614 32.5627C116.385 33.2336 116.052 33.8116 115.595 34.2958C115.158 34.7811 114.596 35.1736 113.952 35.4519C113.308 35.7291 112.579 35.8682 111.748 35.8682H111.435C110.104 35.8682 108.67 35.5673 107.13 34.9904V34.5741V30.6905H107.213H107.462H108.315C108.586 30.6905 108.732 30.8297 108.794 31.1068C108.836 31.315 108.898 31.962 108.982 33.0254C109.585 33.2336 110.542 33.3263 111.831 33.3263C112.622 33.3263 113.245 33.1182 113.683 32.7019C114.12 32.2856 114.327 31.6849 114.327 30.8987C114.327 30.4598 114.223 30.0898 114.036 29.8127C113.848 29.5355 113.579 29.3036 113.245 29.1192C112.913 28.9348 112.56 28.7731 112.142 28.6339C111.727 28.4948 111.291 28.3794 110.874 28.2176C110.438 28.0559 110.021 27.8715 109.605 27.6633C109.19 27.4552 108.815 27.1554 108.483 26.8081C108.149 26.4608 107.9 26.0456 107.713 25.514C107.526 25.0049 107.401 24.359 107.401 23.5954C107.401 22.9947 107.506 22.3929 107.734 21.8159C107.942 21.2379 108.275 20.7062 108.691 20.2673C109.107 19.8283 109.627 19.4822 110.23 19.2039C110.832 18.9267 111.539 18.7876 112.33 18.7876C113.808 18.7876 115.242 19.1111 116.636 19.7356V24.0117H116.553H116.303H115.45C115.18 24.0117 115.035 23.8499 114.972 23.5728C114.93 23.3646 114.868 22.7413 114.785 21.7005C114.265 21.446 113.433 21.3306 112.352 21.3306C111.956 21.3306 111.645 21.377 111.353 21.4698C111.061 21.5852 110.811 21.7243 110.624 21.9087C110.438 22.0931 110.27 22.325 110.167 22.5795C110.063 22.834 110.021 23.1338 110.021 23.4347C110.021 23.8273 110.146 24.1508 110.332 24.4053C110.52 24.6599 110.77 24.8906 111.103 25.0762C111.435 25.2606 111.81 25.4461 112.226 25.5841C112.641 25.7232 113.058 25.885 113.494 26.0468C113.932 26.2085 114.347 26.4167 114.764 26.6248C115.179 26.833 115.553 27.1101 115.887 27.4574C116.219 27.8036 116.49 28.1973 116.676 28.6826C116.885 29.1656 116.968 29.7674 116.968 30.4598Z" fill="black" fill-opacity="0.5"/>
<path d="M127.928 25.4838H126.152V21.9068H123.058V25.4838H121.282V17.0232H123.058V20.5595H126.152V17.0232H127.928V25.4838Z" fill="black" fill-opacity="0.5"/>
<path d="M137.275 21.2493C137.275 21.8613 137.18 22.4258 136.99 22.9427C136.8 23.4597 136.533 23.9066 136.188 24.2844C135.843 24.6622 135.427 24.9563 134.941 25.1668C134.455 25.3783 133.915 25.4835 133.323 25.4835H130.366V17.0229H133.323C133.914 17.0229 134.455 17.1293 134.941 17.342C135.427 17.5546 135.843 17.8488 136.188 18.2243C136.533 18.5999 136.8 19.0456 136.99 19.5626C137.18 20.0796 137.275 20.6418 137.275 21.2493ZM135.468 21.2493C135.468 20.8307 135.419 20.454 135.322 20.1169C135.223 19.7798 135.083 19.4947 134.901 19.2605C134.718 19.0264 134.493 18.8465 134.229 18.7209C133.964 18.5954 133.662 18.532 133.324 18.532H132.143V23.9733H133.324C133.662 23.9733 133.963 23.91 134.229 23.7844C134.492 23.6588 134.718 23.4778 134.901 23.2436C135.083 23.0095 135.223 22.7244 135.322 22.3873C135.419 22.0513 135.468 21.6712 135.468 21.2493Z" fill="black" fill-opacity="0.5"/>
</svg>
