<svg width="26" height="27" viewBox="0 0 26 27" fill="none" xmlns="http://www.w3.org/2000/svg">
<path fill-rule="evenodd" clip-rule="evenodd" d="M11.7 2.61855C6.67421 2.61855 2.6 6.69276 2.6 11.7186C2.6 16.7443 6.67421 20.8186 11.7 20.8186C16.7258 20.8186 20.8 16.7443 20.8 11.7186C20.8 6.69276 16.7258 2.61855 11.7 2.61855ZM0 11.7186C0 5.25682 5.23827 0.0185547 11.7 0.0185547C18.1617 0.0185547 23.4 5.25682 23.4 11.7186C23.4 18.1803 18.1617 23.4186 11.7 23.4186C5.23827 23.4186 0 18.1803 0 11.7186Z" fill="#FEFEFE"/>
<path fill-rule="evenodd" clip-rule="evenodd" d="M18.1258 18.1443C18.6334 17.6366 19.4566 17.6366 19.9642 18.1443L25.6192 23.7993C26.1269 24.307 26.1269 25.1301 25.6192 25.6378C25.1116 26.1455 24.2884 26.1455 23.7808 25.6378L18.1258 19.9828C17.6181 19.4751 17.6181 18.652 18.1258 18.1443Z" fill="#FEFEFE"/>
</svg>
